<?xml version="1.0" encoding="UTF-8" standalone="no"?>
<!-- Created with Inkscape (http://www.inkscape.org/) -->

<svg
   xmlns:dc="http://purl.org/dc/elements/1.1/"
   xmlns:cc="http://creativecommons.org/ns#"
   xmlns:rdf="http://www.w3.org/1999/02/22-rdf-syntax-ns#"
   xmlns:svg="http://www.w3.org/2000/svg"
   xmlns="http://www.w3.org/2000/svg"
   xmlns:inkscape="http://www.inkscape.org/namespaces/inkscape"
   version="1.1"
   width="577.5"
   height="108.75"
   id="svg2"
   xml:space="preserve"><metadata
     id="metadata8"><rdf:RDF><cc:Work
         rdf:about=""><dc:format>image/svg+xml</dc:format><dc:type
           rdf:resource="http://purl.org/dc/dcmitype/StillImage" /></cc:Work></rdf:RDF></metadata><defs
     id="defs6" /><g
     transform="matrix(1.25,0,0,-1.25,0,108.75)"
     id="g10"><g
       transform="scale(0.1,0.1)"
       id="g12"><path
         d="m 4529.02,179.352 c -5.39,-4.84 -11.01,-9.68 -16.95,-14.571 -0.82,-0.781 -1.64,-1.601 -2.46,-2.422 -0.82,-1.05 -1.6,-2.031 -2.42,-2.808 -9.42,-12.66 -19.26,-24.77 -29.49,-36.371 18.86,17.23 35.97,35.98 51.32,56.172 m -56.17,568.75 c 5.39,-1.641 5.78,0.546 1.21,6.449 -5.94,5.39 -11.99,10.508 -18.2,15.39 -1.33,0.778 -2.54,1.481 -3.63,1.989 -6.21,2.148 -6.45,-0.27 -0.82,-7.258 3.24,-3.524 6.87,-6.723 10.89,-9.692 4.07,-3.242 7.58,-5.55 10.55,-6.878 M 4175.74,547.211 c 0.82,-2.43 2.42,-4.34 4.85,-5.672 1.32,-0.82 2.81,-1.598 4.45,-2.418 2.15,-1.09 4.73,-1.48 7.69,-1.211 2.66,0.551 4.81,1.762 6.45,3.629 15.66,16.723 30.47,32.461 44.49,47.27 8.6,-29.61 16.68,-61.168 24.26,-94.571 7.77,-33.398 14.26,-67.886 19.37,-103.476 0.28,-3.242 1.61,-5.66 4.07,-7.274 2.65,-1.597 5.39,-2.027 8.04,-1.207 1.1,0.547 2.31,0.938 3.64,1.207 1.91,0.832 3.63,2.313 5.27,4.461 1.33,2.153 2.03,4.449 2.03,6.832 0.78,42.617 -0.94,84.11 -5.27,124.539 20.74,-35.859 38.83,-71.8 54.18,-107.929 0.82,-2.153 2.15,-3.641 4.02,-4.461 1.92,-0.782 3.67,-0.942 5.27,-0.391 1.33,0.551 2.58,0.941 3.64,1.211 2.15,0.82 3.75,2.539 4.88,5.238 1.33,2.973 1.6,5.703 0.78,8.082 -8.87,31.571 -19.26,62.27 -31.09,92.192 -11.88,30.199 -24.81,59.019 -38.83,86.476 20.47,-8.629 40,-17.527 58.59,-26.668 1.92,-1.101 3.64,-1.332 5.28,-0.789 1.6,0.508 2.81,1.61 3.63,3.207 0.27,0.543 0.51,1.211 0.82,2.032 0.51,1.871 0.39,3.902 -0.43,6.05 -1.05,2.418 -2.54,4.34 -4.45,5.668 -23.17,16.172 -47.54,31.364 -73.13,45.703 -1.64,0.778 -3.51,1.481 -5.7,1.989 -2.15,0.55 -4.02,0.672 -5.63,0.39 -17.5,-1.871 -35.7,-4.41 -54.57,-7.648 -1.91,-0.281 -3.79,-0.981 -5.66,-2.031 -1.6,-0.789 -2.97,-2.039 -4.06,-3.641 -14.26,-21.289 -29.65,-44.449 -46.06,-69.531 -1.09,-2.149 -1.36,-4.571 -0.82,-7.258 m 250.2,-439.77 c 5.39,3.2 10.27,6.95 14.57,11.289 4.02,4.34 6.44,8.36 7.26,12.11 0.82,3.789 -0.39,5.781 -3.63,6.09 -3.24,0.281 -7.69,-1.09 -13.32,-4.059 -5.94,-3.519 -11.05,-7.422 -15.35,-11.723 -4.34,-4.57 -6.76,-8.789 -7.31,-12.539 -0.27,-3.199 1.22,-4.961 4.46,-5.23 3.51,-0.277 7.97,1.09 13.32,4.062 m -330.24,680.27 c -7.3,-1.91 -13.04,-4.57 -17.38,-8.082 -4.3,-3.75 -6.21,-7.418 -5.66,-10.938 1.09,-3.519 4.45,-5.781 10.11,-6.839 5.63,-1.09 12.43,-0.704 20.2,1.179 7.85,2.141 13.91,5 18.2,8.508 4.34,3.75 5.94,7.422 4.85,10.941 -1.61,3.2 -5.28,5.348 -10.9,6.442 -5.67,1.098 -12.15,0.668 -19.42,-1.211 m 100.67,-38 c -21.29,6.75 -41.92,12.379 -61.84,16.949 -1.09,0.551 -2.58,0.699 -4.45,0.43 -1.6,0 -3.09,-0.121 -4.46,-0.43 -15.11,-3.48 -30.03,-7.379 -44.88,-11.68 -1.6,-0.269 -3.08,-0.82 -4.45,-1.64 -1.6,-0.82 -2.81,-1.719 -3.63,-2.809 -14.57,-13.48 -29.07,-28.441 -43.64,-44.851 -1.36,-1.641 -1.91,-3.121 -1.6,-4.45 0,-1.371 0.78,-2.152 2.38,-2.46 0.82,-0.282 1.65,-0.508 2.43,-0.821 1.36,-0.508 2.97,-0.347 4.88,0.43 1.87,0.543 3.51,1.48 4.8,2.851 13.52,11.559 26.72,22.461 39.65,32.731 2.42,-31.25 5.78,-68.859 10.12,-112.813 0.23,-2.148 1.48,-3.75 3.63,-4.796 2.15,-1.102 4.57,-1.25 7.27,-0.43 1.09,0.269 2.3,0.656 3.63,1.207 1.88,0.512 3.63,1.641 5.27,3.242 1.61,1.328 2.43,2.969 2.43,4.84 2.42,28.559 4.68,54.418 6.83,77.617 14.34,-19.137 29.81,-40.43 46.49,-63.867 0.82,-1.641 2.3,-2.691 4.45,-3.242 2.46,-0.778 4.61,-0.938 6.48,-0.43 1.37,0.313 2.7,0.551 4.07,0.82 2.65,0.821 4.84,2.153 6.44,4.063 1.1,1.879 1.21,3.75 0.43,5.668 -19.96,40.39 -37.5,74.648 -52.54,102.648 16.96,-2.136 34.34,-4.957 52.11,-8.468 1.92,-0.551 3.75,-0.551 5.67,0 1.87,0.55 3.2,1.21 4.02,2.031 0.55,0.551 0.98,1.051 1.21,1.597 0.82,0.782 0.94,1.922 0.43,3.243 -0.82,1.328 -2.03,2.308 -3.63,2.82 m 17.34,-90.16 c 3.52,-7.539 9.57,-13.321 18.2,-17.34 8.64,-4.34 17.82,-5.941 27.5,-4.891 9.42,1.371 16.06,5 19.81,10.942 3.75,5.66 3.9,12.109 0.43,19.379 -3.52,7.031 -9.34,12.531 -17.42,16.597 -8.09,3.793 -16.72,5.274 -25.86,4.453 -9.14,-1.371 -15.9,-4.882 -20.2,-10.55 -4.06,-5.352 -4.84,-11.563 -2.46,-18.59 M 3841.48,320.84 c 2.39,-7.27 5.63,-13.199 9.69,-17.77 4.03,-4.582 8.21,-6.761 12.54,-6.492 4.02,0.82 6.72,4.184 8.09,10.121 1.05,5.621 0.5,12.653 -1.64,21.012 -2.43,8.09 -5.78,14.418 -10.12,18.988 -4.3,4.571 -8.48,6.371 -12.5,5.27 -3.79,-1.367 -6.25,-5 -7.31,-10.938 -1.05,-5.929 -0.66,-12.652 1.25,-20.191 m 5.24,-80.43 c 0.51,-1.601 1.33,-2.969 2.42,-4.058 0.78,-0.512 1.48,-1.211 2.03,-2 0.78,-0.821 1.72,-1.364 2.81,-1.641 0.82,-0.27 1.33,0 1.64,0.82 2.15,7.821 4.81,16.02 8.09,24.649 14.53,-40.11 31.21,-76.399 50.12,-108.711 0.78,-1.09 1.87,-2.297 3.2,-3.629 1.6,-1.371 2.97,-2.031 4.06,-2.031 0.51,-0.278 1.06,-0.43 1.61,-0.43 0.82,-0.277 1.36,-0.117 1.64,0.43 0.54,0.543 0.54,1.332 0,2.382 -8.36,18.36 -16.18,38.399 -23.48,60.27 15.12,-22.93 31.13,-44.223 48.09,-63.902 0.82,-1.059 1.91,-2.149 3.28,-3.207 1.6,-0.543 2.81,-0.93 3.63,-1.25 0.82,-0.231 1.6,-0.352 2.42,-0.352 1.33,-0.309 2.15,0.121 2.42,1.172 0.28,1.098 -0.15,2.308 -1.21,3.637 -24.8,34.761 -47.46,74.14 -67.89,118.043 12.35,-8.59 25.43,-17.223 39.18,-25.864 1.64,-1.09 2.97,-1.359 4.02,-0.816 1.37,0.277 2.19,0.937 2.47,2.039 0.27,0.82 0.39,1.48 0.39,2.027 0.54,1.332 0.27,3.082 -0.82,5.231 -1.06,1.883 -2.27,3.519 -3.64,4.851 -18.32,14.571 -35.15,29.371 -50.5,44.489 -1.1,1.05 -2.15,1.871 -3.25,2.421 -1.05,0.231 -2.03,0.391 -2.85,0.391 -8.32,-1.332 -16.17,-2.543 -23.44,-3.633 -0.82,0 -1.48,-0.386 -1.99,-1.207 -0.55,-0.551 -0.82,-1.371 -0.82,-2.429 -2.15,-15.352 -3.63,-29.801 -4.45,-43.243 -0.28,-1.089 0,-2.578 0.82,-4.449 m 31.13,318.512 c -5.15,-3.512 -9.33,-8.75 -12.54,-15.781 -3.51,-6.993 -5.11,-14.25 -4.88,-21.789 0.31,-7.313 2.15,-12.543 5.66,-15.782 3.52,-2.968 7.97,-3.129 13.36,-0.398 5.39,3.519 9.85,8.867 13.32,16.18 3.52,7.539 5.28,15.187 5.28,23 -0.51,7.539 -2.7,12.66 -6.45,15.386 -3.79,2.703 -8.4,2.434 -13.75,-0.816 m -18.2,-72.774 c -8.36,-21.519 -15.39,-42.687 -21.02,-63.437 -0.54,-1.91 -0.54,-3.789 0,-5.699 0.28,-2.153 0.82,-3.633 1.6,-4.41 0.55,-0.821 1.06,-1.493 1.61,-2 0.82,-1.133 1.79,-1.364 2.85,-0.821 0.82,0.278 1.48,1.059 2.03,2.43 5.62,13.711 12.11,27.73 19.37,42.027 3.25,-51.207 11.88,-101.718 25.9,-151.597 0.78,-2.153 1.88,-4.032 3.21,-5.629 1.64,-1.641 3.12,-2.301 4.45,-2.032 0.55,0 1.09,0.122 1.64,0.391 1.05,0 1.87,0.66 2.42,2.027 0.55,1.09 0.67,2.582 0.39,4.422 -5.39,30.739 -8.9,62.418 -10.51,95 11.33,-29.929 24.81,-59.929 40.43,-90.121 1.1,-1.597 2.27,-2.969 3.64,-4.058 1.6,-1.063 2.96,-1.493 4.06,-1.18 1.05,0 1.99,0.117 2.81,0.359 1.6,0.309 2.81,1.36 3.63,3.282 0.28,2.136 0,4.449 -0.82,6.828 -10.74,26.961 -19.92,54.031 -27.46,81.25 -7.54,27.23 -13.75,54.031 -18.59,80.429 12.38,-5.347 25.43,-11.007 39.22,-16.949 1.33,-0.551 2.81,-0.39 4.41,0.43 1.64,1.051 2.85,2.539 3.67,4.41 0.51,1.102 0.9,2.191 1.18,3.238 1.09,2.153 1.36,4.461 0.82,6.84 -0.28,2.461 -1.21,4.223 -2.82,5.274 -16.72,11.878 -32.07,23.046 -46.09,33.558 -0.82,0.551 -1.88,0.942 -3.24,1.25 -1.1,0 -2.15,-0.43 -3.24,-1.25 -10.75,-5.941 -20.86,-11.719 -30.32,-17.379 -1.05,-0.511 -1.99,-1.492 -2.81,-2.82 -1.09,-1.09 -1.87,-2.461 -2.42,-4.063 M 4145,29.7812 c 6.48,0.3204 11.21,1.3672 14.14,3.25 2.97,2.1797 3.52,4.5704 1.64,7.2969 -2.15,2.6602 -6.33,4.8125 -12.54,6.4531 -5.94,1.8672 -12.38,2.6876 -19.41,2.418 -6.45,-0.2773 -11.02,-1.3281 -13.71,-3.2383 -2.7,-2.1523 -2.82,-4.5703 -0.43,-7.2695 2.42,-2.7031 6.6,-4.9609 12.54,-6.8711 5.66,-1.6094 11.6,-2.3086 17.77,-2.0391 M 3899.26,142.559 c 3.75,-0.778 5.94,0.152 6.48,2.851 0.24,2.692 -1.25,6.719 -4.45,12.149 -3.52,5.351 -7.58,10.082 -12.15,14.14 -4.57,4.02 -8.59,6.602 -12.11,7.653 -3.51,0.546 -5.23,-0.661 -5.23,-3.633 -0.32,-3.239 1.05,-7.418 4.02,-12.539 3.24,-4.84 6.99,-9.258 11.33,-13.321 4.57,-3.789 8.59,-6.211 12.11,-7.3 m 64.69,-46.8793 c 1.32,-0.7813 2.53,-1.2109 3.63,-1.2109 1.05,-0.2696 1.6,0 1.6,0.8203 0.27,0 0.39,0.1211 0.39,0.3906 0.31,0.8203 -0.12,1.7617 -1.17,2.8515 -0.82,1.0586 -1.92,1.9998 -3.28,2.8208 -16.68,10.5 -32.58,21.718 -47.66,33.546 -1.09,0.821 -2.15,1.493 -3.24,2.032 -1.1,0.511 -2.03,0.82 -2.85,0.82 -7.27,1.84 -14.26,3.75 -21.02,5.629 l -1.6,0 c -0.27,-0.277 -0.43,-0.668 -0.43,-1.207 -0.23,-2.934 -0.35,-5.781 -0.35,-8.481 4.57,-4.57 9.26,-9.019 14.14,-13.363 0.51,0.82 1.05,1.602 1.6,2.422 2.42,-3.469 4.84,-6.988 7.27,-10.512 18.86,-15.8474 38.94,-30.1872 60.23,-42.8474 -14.3,14.0313 -28.55,29.6485 -42.85,46.9184 11.6,-7.27 23.44,-14.137 35.59,-20.6293 m 41.21,30.7113 c 6.21,-0.243 10.39,1.359 12.54,4.879 1.87,3.511 1.09,8.199 -2.43,14.14 -3.79,5.942 -9.02,11.051 -15.78,15.352 -6.72,4.34 -13.32,6.597 -19.8,6.879 -5.94,0 -9.69,-1.879 -11.29,-5.629 -1.64,-3.793 -0.7,-8.633 2.81,-14.571 3.79,-5.66 8.75,-10.39 14.96,-14.14 6.49,-4.063 12.78,-6.371 18.99,-6.91 m 144.29,716.711 c 5.67,0.789 10.12,1.878 13.36,3.207 2.93,1.363 3.75,2.851 2.42,4.453 -1.32,1.328 -4.29,2.308 -8.9,2.808 -4.3,0.321 -9.3,0.16 -14.96,-0.351 -5.35,-0.821 -9.69,-2.028 -12.89,-3.668 -2.97,-1.602 -4.22,-3.09 -3.68,-4.41 1.1,-1.371 3.91,-2.313 8.48,-2.86 4.88,-0.269 10.24,0 16.17,0.821 m -93.75,-17.813 c 1.33,0 2.7,0.281 4.03,0.82 0.82,0.282 1.48,0.391 2.03,0.391 1.33,0.551 2.42,1.102 3.24,1.641 1.05,0.281 1.72,0.668 1.99,1.179 3.52,6.75 7.03,12.852 10.55,18.2 5.94,-2.93 12.34,-6.45 19.37,-10.469 0.28,-0.313 0.94,-0.43 2.04,-0.43 1.32,0 2.53,0.117 3.63,0.43 0.82,0.23 1.64,0.508 2.42,0.777 1.6,0.274 2.85,0.703 3.63,1.211 1.1,0.551 1.37,0.941 0.82,1.211 -4.57,5.391 -9.02,10.121 -13.32,14.141 -13.24,-2.969 -26.17,-6.442 -38.83,-10.5 -1.05,-5.36 -2.03,-11.289 -2.85,-17.782 -0.23,-0.539 0.16,-0.82 1.25,-0.82 M 3850.35,690.68 c 0.51,0.308 1.21,0.82 1.99,1.64 1.1,0.821 1.92,1.758 2.46,2.821 l 1.18,1.211 c 0.82,1.359 1.36,2.418 1.64,3.238 0.27,0.82 0.27,1.211 0,1.211 l -5.28,0 c -3.2,-4.02 -6.29,-8.09 -9.25,-12.11 2.42,0.821 4.8,1.481 7.26,1.989 m 89.34,84.492 c 0.54,0 1.48,0.398 2.85,1.219 0.51,0.269 1.05,0.539 1.6,0.82 1.06,0.5 1.99,1.211 2.81,1.988 1.1,0.821 1.76,1.481 2,2.031 4.88,6.758 9.57,13.09 14.17,19.02 -5.93,-3.789 -11.71,-7.539 -17.38,-11.328 -2.42,-4.063 -4.69,-8.352 -6.87,-12.934 -0.28,-0.539 0,-0.816 0.82,-0.816 m 35.15,19.027 1.21,0 c 0.83,0.231 1.76,0.512 2.86,0.781 0.78,0.551 1.48,0.942 2.03,1.211 1.6,0.547 2.93,1.207 4.02,2.028 1.09,1.101 1.6,1.761 1.6,2.031 l 0,13.75 c -5.62,-2.969 -11.33,-6.211 -16.99,-9.719 1.64,-2.972 3.4,-6.332 5.27,-10.082 m -63.47,-39.219 c 4.61,2.969 8.63,6.051 12.15,9.301 3.51,3.508 5.78,6.438 6.87,8.86 0.78,2.148 -0.16,2.968 -2.85,2.429 -9.42,-7.539 -18.71,-15.32 -27.89,-23.398 0,-2.973 3.94,-2.031 11.72,2.808 m 267.22,95.391 c 0.24,-0.551 1.06,-0.941 2.43,-1.211 l 6.44,0 c 1.09,0.27 1.99,0.391 2.85,0.391 0.51,0.551 0.82,0.937 0.82,1.211 -0.54,4.84 -1.13,9.41 -1.68,13.75 -6.72,0 -13.59,-0.121 -20.58,-0.434 2.97,-4.019 6.21,-8.59 9.72,-13.707 m 112.78,-2.422 c 0.51,-0.551 1.48,-0.98 2.81,-1.211 1.33,-0.547 2.58,-0.937 3.63,-1.25 l 1.6,0 c 1.1,-0.238 1.92,-0.238 2.47,0 0.23,0 0.23,0.153 0,0.434 -0.83,1.359 -1.92,2.687 -3.29,4.019 -4.57,1.368 -9.25,2.579 -14.14,3.629 2.19,-1.832 4.46,-3.75 6.92,-5.621 M 3793.75,590.84 c 0.27,-0.551 0.82,-0.391 1.6,0.43 0,0.269 0.27,0.511 0.82,0.82 0.31,0.781 0.82,1.719 1.6,2.808 0.55,1.09 0.98,2.153 1.25,3.243 5.36,17.781 11.45,34.5 18.21,50.121 -6.76,-11.602 -12.97,-23.59 -18.64,-35.981 -1.6,-6.172 -3.24,-12.543 -4.84,-19.019 -0.23,-1.332 -0.23,-2.153 0,-2.422 m -31.52,-155.199 c 0,-1.321 0.11,-2.571 0.43,-3.629 0.5,-0.821 0.89,-0.981 1.17,-0.434 0.31,0 0.55,0.121 0.82,0.434 0.27,0.508 0.55,1.168 0.82,1.988 0.27,1.102 0.39,2.309 0.39,3.641 0.27,21.597 1.76,42.847 4.45,63.898 0.55,-17.539 2.15,-35.738 4.85,-54.57 0.27,-1.367 0.54,-2.297 0.82,-2.848 0.54,-0.269 0.93,-0.269 1.21,0 l 0.82,0.82 c 0.51,0.547 1.05,1.598 1.6,3.239 0.27,1.601 0.27,3.211 0,4.851 -2.42,34.489 -2.03,66.68 1.21,96.598 2.97,-1.367 6.45,-2.848 10.51,-4.457 0.27,-0.274 0.7,0 1.21,0.816 0.78,0.793 1.33,1.883 1.6,3.25 0.31,0.5 0.55,1.172 0.86,1.992 0.51,1.372 0.9,2.692 1.17,4.059 0,1.371 -0.12,2.313 -0.39,2.852 -4.06,4.57 -7.69,8.871 -10.9,12.89 0,0.278 -0.27,0.43 -0.82,0.43 l -1.21,-1.211 c -0.27,-0.27 -0.55,-0.699 -0.82,-1.25 -10.78,-32.031 -17.38,-65.578 -19.8,-100.621 -0.28,-10.777 -0.28,-21.68 0,-32.738 M 4175.31,19.7109 c 13.24,-1.6406 26.17,-2.8593 38.83,-3.6406 1.37,0 2.7,0.1211 4.02,0.3906 1.37,0.2774 2.46,0.5508 3.29,0.7774 0.23,0.3203 0.5,0.5508 0.78,0.832 1.05,0.5391 1.36,1.0899 0.82,1.6406 -0.28,0.2696 -1.1,0.5 -2.43,0.8203 -15.89,2.1407 -32.22,4.9571 -48.94,8.4297 -1.06,0.3203 -2.27,0.4297 -3.63,0.4297 -1.6,0.2813 -2.97,0.3906 -4.03,0.3906 -12.42,-1.0507 -24.37,-1.6015 -35.97,-1.6015 l -3.64,0 c -0.82,-0.2695 -1.48,-0.5391 -2.03,-0.8203 -5.39,-3.5078 -10.5,-6.7188 -15.35,-9.6875 6.17,-1.0938 12.38,-2.1407 18.59,-3.2031 3.21,1.0624 6.49,2.2695 9.69,3.6015 1.6,-1.8789 3.09,-3.6015 4.46,-5.2812 15.62,-1.8282 31.4,-2.7696 47.3,-2.7696 -3.79,2.9688 -7.69,6.1719 -11.76,9.6914 M 3775.16,387.52 c -5.12,8.902 -9.57,17.378 -13.32,25.468 0.27,-4.297 0.5,-8.636 0.82,-12.929 0.23,-3.789 0.66,-7.418 1.17,-10.899 3.24,-4.301 6.76,-8.75 10.55,-13.359 0.23,-0.512 0.66,-0.66 1.17,-0.391 0.31,0.551 0.54,1.371 0.82,2.418 l 0,1.602 c 0.27,1.371 0.27,2.851 0,4.461 -0.51,1.64 -0.94,2.808 -1.21,3.629 M 4031.84,45.1406 c -3.25,2.961 -7.54,5.8203 -12.93,8.5078 -5.39,2.4219 -10.63,4.1797 -15.75,5.2735 -5.93,1.0586 -8.9,0.3984 -8.9,-2.0313 12.93,-6.75 26.13,-12.6523 39.61,-17.8125 1.33,1.0938 0.66,3.1328 -2.03,6.0625 m 246.99,805.6214 c -2.15,1.636 -5.55,3.129 -10.12,4.449 -4.57,1.098 -9.3,1.879 -14.14,2.43 -4.84,0.269 -8.36,0 -10.55,-0.789 -2.14,-0.821 -2.26,-2.032 -0.35,-3.633 2.15,-1.641 5.63,-2.969 10.47,-4.059 4.88,-1.371 9.84,-2.191 14.96,-2.422 10.55,-0.547 13.75,0.782 9.73,4.024 m -59.03,0.816 c 0.51,-0.269 1.49,-0.547 2.82,-0.816 1.09,-0.274 2.15,-0.391 3.24,-0.391 l 2.42,0 c 1.37,0 2.31,0.117 2.85,0.391 0.78,0.547 0.78,0.976 0,1.207 -6.75,4.34 -13.2,8.203 -19.41,11.722 -7.27,0.547 -14.53,0.821 -21.84,0.821 9.46,-3.524 19.42,-7.813 29.92,-12.934 m -49.72,-6.867 c -1.37,-0.281 -2.54,-0.391 -3.63,-0.391 -11.33,-1.371 -22.66,-2.859 -33.95,-4.461 -1.09,-0.269 -2.3,-0.539 -3.67,-0.82 -1.06,-0.508 -1.84,-0.937 -2.38,-1.211 -10.51,-5.937 -21.18,-12.539 -31.96,-19.797 -1.09,-0.551 -1.48,-1.101 -1.21,-1.609 0,-0.543 0.67,-0.973 2.03,-1.25 l 1.99,0 c 1.37,-0.231 2.7,-0.231 4.07,0 1.6,0.547 2.97,1.137 4.02,1.648 10,5.11 19.81,9.84 29.53,14.141 4.03,-12.93 8.75,-29.109 14.14,-48.481 0.28,-0.82 1.21,-1.492 2.82,-2.031 1.91,-0.551 3.78,-0.551 5.66,0 1.09,0 2.03,0.121 2.85,0.391 1.6,0 2.97,0.39 4.02,1.211 1.1,0.551 1.64,1.328 1.64,2.418 0.28,12.383 0.51,23.441 0.83,33.133 11.83,-8.051 24.49,-17.622 37.96,-28.68 0.55,-0.543 1.61,-0.934 3.25,-1.211 1.6,-0.539 3.24,-0.66 4.84,-0.43 l 2.81,0 c 1.92,0.321 3.4,0.821 4.46,1.641 0.82,0.816 0.82,1.648 0,2.43 -16.18,18.589 -30.98,33.668 -44.46,45.269 12.93,-1.051 26.02,-2.699 39.22,-4.84 1.33,-0.281 2.81,-0.281 4.45,0 1.06,0 2.04,0.27 2.82,0.821 0,0 0.27,0.109 0.82,0.386 0.54,0.274 0.54,0.66 0,1.211 -0.55,0.539 -1.49,0.942 -2.85,1.211 -16.18,3.789 -31.8,6.762 -46.88,8.91 -1.09,0 -2.15,0.11 -3.24,0.391 m 173.01,-21.02 c 0.82,-0.55 1.75,-1.211 2.81,-2.031 0.86,-0.269 1.64,-0.551 2.46,-0.781 1.05,-0.551 2.15,-0.981 3.2,-1.25 1.1,-0.238 1.92,-0.238 2.42,0 4.07,1.359 7.97,2.422 11.72,3.242 14.85,-13.199 30.2,-29.223 46.1,-48.133 0.82,-1.047 1.87,-1.988 3.24,-2.808 1.6,-1.051 2.97,-1.758 4.06,-1.989 0.24,0 0.67,-0.121 1.17,-0.429 l 1.64,0 c 0.28,0.547 0.16,1.09 -0.39,1.597 -7.03,10.821 -14.14,20.629 -21.44,29.532 13.75,-10.782 27.5,-22.61 41.25,-35.582 l 2.42,-2.418 c 1.09,-0.551 2.03,-0.903 2.81,-1.219 0.55,0 0.94,-0.113 1.21,-0.391 1.1,-0.269 1.64,-0.269 1.64,0 0,0.508 -0.54,1.367 -1.64,2.43 -15.35,16.437 -30.82,31.129 -46.48,44.059 -15.9,9.14 -32.62,17.378 -50.12,24.652 -2.69,-2.434 -5.66,-4.852 -8.87,-7.274 0,-0.269 0.24,-0.699 0.79,-1.207 m -55.79,20.629 c -1.05,0 -2.14,0.11 -3.2,0.391 -9.45,0.777 -19.14,1.48 -29.14,2.027 -1.05,0.231 -2.03,0.231 -2.85,0 -0.78,0 -1.49,-0.117 -1.99,-0.429 -6.45,-3.207 -13.32,-6.879 -20.59,-10.899 -0.82,-0.551 -0.98,-1.09 -0.43,-1.64 0.78,-0.508 1.92,-0.942 3.24,-1.168 0.51,-0.321 1.33,-0.551 2.43,-0.821 1.05,-0.281 2.42,-0.429 4.02,-0.429 1.37,0 2.46,0.148 3.24,0.429 7.27,2.418 14.3,4.719 21.02,6.867 11.6,-12.418 24.14,-27.886 37.57,-46.476 0.55,-1.102 1.76,-1.922 3.68,-2.434 1.87,-0.816 3.63,-1.359 5.23,-1.636 l 2.03,0 c 1.06,0 2.03,0.16 2.85,0.429 0.51,0.547 0.67,1.059 0.36,1.61 -4.81,11.32 -9.69,21.281 -14.54,29.918 14.3,-9.457 29.11,-20.508 44.5,-33.168 0.78,-0.539 1.83,-1.211 3.2,-2.032 1.37,-0.539 2.58,-0.781 3.63,-0.781 0.82,-0.269 1.6,-0.43 2.42,-0.43 1.37,-0.269 2.15,-0.117 2.47,0.43 0.23,0.551 0,1.332 -0.83,2.422 -20.23,19.691 -39.6,36.102 -58.2,49.301 12.11,-3.52 23.95,-7.379 35.55,-11.723 1.09,-0.547 2.19,-0.816 3.24,-0.816 1.09,-0.231 1.76,-0.231 2.03,0 0.28,0.269 0.43,0.429 0.43,0.429 0.24,0.27 0,0.661 -0.82,1.207 -0.82,0.782 -1.76,1.493 -2.85,2.032 -14.8,6.172 -29.65,11.601 -44.49,16.172 -1.06,0.546 -2.11,0.898 -3.21,1.218 M 4095.31,33.8516 c 1.33,-0.2813 2.66,-0.4297 4.03,-0.4297 l 2.42,0 c 1.33,-0.2422 2.46,-0.1211 3.24,0.4297 0.55,0.539 0.39,1.207 -0.43,2.0273 -19.37,16.9922 -39.88,38.5117 -61.41,64.6521 15.63,-6.1794 31.53,-11.7224 47.7,-16.5701 1.87,-0.539 3.63,-0.7812 5.27,-0.7812 1.33,0.2422 2.39,0.7812 3.21,1.6015 0.27,0.2383 0.54,0.5469 0.82,0.7891 0.54,0.8203 0.39,1.75 -0.39,2.8516 -0.82,1.3593 -2.04,2.2969 -3.64,2.8476 -21.33,8.8715 -42.34,18.7105 -63.08,29.4925 -1.33,0.816 -2.82,1.328 -4.46,1.597 -1.6,0.551 -3.08,0.821 -4.45,0.821 -12.11,0.55 -23.83,1.332 -35.12,2.422 -1.36,0 -2.46,-0.153 -3.28,-0.391 -0.78,-0.313 -1.33,-0.82 -1.6,-1.641 -4.02,-8.898 -7.66,-17.109 -10.94,-24.6481 -0.23,-0.543 0,-1.3633 0.82,-2.4219 1.1,-1.0898 2.31,-2.1484 3.64,-3.2383 0.82,-0.2734 1.64,-0.6601 2.46,-1.2109 1.33,-0.7813 2.65,-1.332 4.02,-1.6016 1.09,-0.5508 1.91,-0.5508 2.42,0 5.12,3.75 10.35,7.9297 15.78,12.5388 16.45,-25.0778 32.35,-46.0974 47.66,-63.0896 0.55,-0.8203 1.64,-1.4765 3.28,-2.0273 1.6,-0.8203 3.09,-1.1719 4.45,-1.1719 0.51,-0.3086 1.18,-0.4297 2,-0.4297 1.09,0 1.87,0.1211 2.42,0.4297 0.55,0 0.7,0.2305 0.39,0.7813 -5.12,9.4492 -10.35,20.0781 -15.74,31.9101 15.62,-12.6523 30.74,-23.9414 45.27,-33.9414 0.78,-0.5508 1.88,-1.0586 3.24,-1.5976 M 3802.66,253.73 c 0,1.598 0.11,3.399 0.39,5.27 3.24,-8.898 6.6,-17.539 10.11,-25.898 7.54,-13.75 15.79,-27.071 24.65,-40 -3.24,7.539 -6.33,15.238 -9.29,23.046 11.05,-19.41 23.04,-37.847 35.97,-55.386 0.82,-1.051 1.76,-2.032 2.85,-2.813 0.78,-0.82 1.49,-1.211 2,-1.211 0.54,-0.277 0.97,-0.429 1.21,-0.429 0.82,-0.547 1.25,-0.239 1.25,0.82 0,0.82 -0.43,1.762 -1.25,2.851 -20.47,30.43 -38.28,63.442 -53.32,99.02 7.26,-7.539 15.04,-15.078 23.43,-22.648 0.82,-0.821 1.61,-1.211 2.43,-1.211 0.54,0.269 0.78,0.929 0.78,2.031 l 0,1.207 c 0,1.09 -0.24,2.422 -0.78,4.062 -0.82,1.598 -1.8,2.969 -2.86,4.02 -11.28,12.66 -21.52,25.199 -30.74,37.578 -0.51,1.102 -1.17,1.762 -1.99,2.031 -0.55,0.551 -1.09,0.821 -1.64,0.821 -4.02,-0.539 -7.93,-0.93 -11.72,-1.25 -0.27,0 -0.51,-0.231 -0.82,-0.782 -0.23,-0.539 -0.35,-1.211 -0.35,-2.031 0.23,-3.238 0.35,-6.328 0.35,-9.297 2.97,-6.711 6.09,-13.32 9.34,-19.801 m 626.52,-82.031 c 1.33,0.781 2.58,1.871 3.63,3.199 0.55,0.821 1.1,1.493 1.64,2.032 0.82,1.371 1.33,2.851 1.6,4.461 0,1.359 -0.54,2.14 -1.6,2.418 -12.38,3.511 -26.01,7.691 -40.86,12.543 -1.05,0.269 -2.38,0.269 -4.02,0 -1.33,0 -2.81,-0.391 -4.41,-1.211 -14.57,-6.762 -29.69,-13.211 -45.32,-19.422 -1.87,-0.547 -3.47,-1.481 -4.84,-2.848 -1.6,-1.051 -2.93,-2.269 -4.06,-3.633 -15.35,-17.777 -30.32,-34.218 -44.85,-49.297 -1.32,-1.332 -1.87,-2.582 -1.64,-3.632 0.32,-1.329 1.25,-2.149 2.85,-2.457 0.82,-0.243 1.61,-0.512 2.43,-0.782 1.64,-0.281 3.36,-0.121 5.23,0.418 1.92,0.551 3.52,1.184 4.88,2.043 12.93,10.188 25.86,21.09 38.83,32.688 -0.82,-29.61 -2.3,-54.6878 -4.45,-75.1487 -0.31,-0.832 0.23,-1.3711 1.6,-1.6484 1.37,0 2.85,0.2773 4.45,0.8164 0.78,0.2812 1.61,0.5508 2.43,0.832 1.32,0.5391 2.57,1.2109 3.63,2.0313 1.05,0.7773 1.72,1.5976 2.03,2.3789 5.94,13.4804 11.72,28.5895 17.34,45.2695 5.94,-11.828 11.21,-22.34 15.78,-31.4805 0.28,-0.5507 0.94,-0.8203 2.04,-0.8203 0.82,0.2696 1.87,0.6602 3.24,1.1719 0.78,0.3086 1.6,0.6992 2.42,1.25 1.6,0.5508 3.09,1.4805 4.41,2.8086 1.14,1.1015 1.64,2.0312 1.64,2.8515 -0.5,19.9298 -2.53,43.9098 -6.05,71.9178 12.66,-0.238 24.65,-0.39 35.98,-0.39 1.05,0 2.42,0.543 4.02,1.64 m 102.27,32.34 c -3.75,-3.277 -7.27,-7.418 -10.51,-12.539 -3.24,-4.879 -5.55,-9.449 -6.88,-13.75 -1.05,-3.789 -0.66,-5.82 1.21,-6.051 1.61,-0.551 4.34,0.781 8.09,4.02 3.52,3.242 6.76,7.152 9.69,11.722 2.97,4.571 5.15,8.911 6.48,12.969 1.92,8.32 -0.78,9.57 -8.08,3.629 m 67.1,113.949 c -2.96,5.153 -6.17,10.66 -9.68,16.602 -0.55,0.269 -0.94,0.39 -1.25,0.39 -0.51,0 -0.9,-0.269 -1.17,-0.82 -4.61,-4.84 -9.46,-9.808 -14.57,-14.922 -0.55,-0.547 -1.1,-1.367 -1.61,-2.457 -0.82,-1.062 -1.36,-2.109 -1.64,-3.211 -6.75,-17.808 -14.41,-35.308 -23.04,-52.539 -0.79,-1.64 -1.33,-3.121 -1.61,-4.453 0,-1.367 0.12,-2.297 0.43,-2.848 0.51,0 0.79,-0.121 0.79,-0.39 0.5,-0.27 1.21,-0.16 1.99,0.39 0.82,0.551 1.48,1.481 2.03,2.848 7.03,11.844 13.36,23.711 19.02,35.551 -4.88,-31.25 -11.6,-59.57 -20.23,-84.891 4.06,6.184 7.97,12.543 11.72,19.032 4.33,11.558 8.24,23.832 11.72,36.8 -0.24,-5.941 -0.67,-11.761 -1.18,-17.429 3.48,7.031 6.88,14.14 10.08,21.449 2.15,13.75 3.79,28.281 4.88,43.629 3.52,-1.598 6.72,-3.078 9.69,-4.449 l 0.43,0 c 1.06,3.789 2.11,7.539 3.2,11.371 l 0,0.347 m -799.53,-29.066 c 2.15,0.238 3.36,2.539 3.64,6.84 0,4.34 -0.82,9.726 -2.43,16.168 -1.91,6.211 -4.18,11.332 -6.91,15.39 -2.38,3.75 -4.57,5.352 -6.41,4.809 -1.91,-0.777 -2.96,-3.32 -3.28,-7.66 0,-4.571 0.82,-9.797 2.46,-15.739 1.61,-5.941 3.75,-10.781 6.45,-14.57 2.46,-3.75 4.57,-5.551 6.48,-5.238 m 39.18,339.109 c 4.07,3.508 7.7,7.957 10.94,13.36 3.2,5.39 5.51,10.39 6.84,14.961 0.82,4.328 0.31,6.867 -1.6,7.648 -1.88,0.551 -4.85,-0.66 -8.87,-3.629 -3.52,-3.48 -6.88,-7.66 -10.12,-12.543 -2.97,-5.117 -4.96,-9.957 -6.05,-14.527 -1.1,-4.61 -0.82,-7.27 0.78,-8.09 1.91,-1.09 4.61,-0.152 8.08,2.82 M 3798.59,556.5 c -0.27,-1.328 -0.11,-2.301 0.43,-2.809 0,-0.312 0.12,-0.55 0.39,-0.82 0.28,-0.551 0.82,-0.551 1.64,0 0.51,0.508 1.18,1.481 2,2.809 5.66,12.148 11.99,24.14 18.98,35.98 -6.72,-34.488 -10.23,-72.109 -10.51,-112.769 0,-1.61 0.28,-2.969 0.82,-4.032 0.82,-1.089 1.61,-1.25 2.43,-0.429 0.54,0.281 0.97,0.55 1.21,0.82 0.54,0.551 1.25,1.488 2.03,2.82 0.27,1.36 0.54,2.852 0.82,4.45 2.15,26.171 5.66,51.48 10.51,75.968 1.87,-19.367 4.84,-40.109 8.86,-62.218 0.55,-1.329 1.1,-2.27 1.6,-2.809 0.86,-0.551 1.68,-0.551 2.47,0 0.5,0.23 1.05,0.66 1.6,1.211 1.36,0.5 2.3,1.867 2.85,4.019 0.82,2.149 1.05,4.18 0.82,6.047 -3.28,40.434 -3.4,76.801 -0.43,109.153 6.72,-0.512 13.87,-1.18 21.41,-2 0.82,0 1.79,0.39 2.85,1.179 1.33,1.129 2.42,2.418 3.24,4.059 0.27,0.512 0.66,1.211 1.21,1.992 0.78,1.641 1.33,3.117 1.6,4.449 0,1.641 -0.39,2.578 -1.21,2.852 -8.36,3.75 -16.01,7.269 -23.05,10.508 -0.5,0.281 -1.21,0.281 -1.99,0 -0.55,-0.27 -1.37,-0.821 -2.46,-1.641 -7.54,-6.168 -14.65,-12.379 -21.41,-18.551 -0.5,-0.547 -1.21,-1.367 -1.99,-2.418 -0.82,-1.101 -1.48,-2.148 -2.03,-3.289 -8.9,-16.679 -16.72,-33.511 -23.48,-50.5 -0.78,-1.332 -1.21,-2.703 -1.21,-4.031 m 15.79,55.781 c 0.27,-0.269 0.82,0 1.6,0.789 l 1.25,1.25 c 0.78,0.782 1.6,1.871 2.38,3.2 0.82,1.601 1.37,2.968 1.64,4.058 3.24,19.41 7.27,37.07 12.15,52.934 -5.7,-8.364 -10.94,-16.801 -15.82,-25.434 -1.6,-10.816 -2.81,-22.656 -3.63,-35.59 -0.24,-0.777 -0.12,-1.207 0.43,-1.207 m 654.84,-495.582 c -7.27,-0.277 -15.12,-0.277 -23.44,0 -0.55,0 -1.37,-0.121 -2.42,-0.39 -0.86,-0.547 -1.8,-1.098 -2.85,-1.637 -10,-5.902 -20.35,-11.684 -31.13,-17.3517 -1.1,-0.5391 -2.15,-1.25 -3.25,-2.0312 -1.33,-0.8203 -2.42,-1.6407 -3.2,-2.418 -12.42,-11.8828 -24.81,-22.7695 -37.23,-32.7305 -1.05,-0.8203 -1.6,-1.4922 -1.6,-2.039 0,-0.543 0.43,-0.8204 1.21,-0.8204 l 1.64,0 c 1.06,0 2.15,0.2774 3.21,0.8204 1.36,0.5468 2.57,1.0586 3.63,1.6093 10.23,7.3008 20.51,14.961 30.74,23.0391 -2.42,-6.4805 -4.73,-12.4219 -6.87,-17.7695 13.75,7.539 26.95,15.8984 39.61,25.039 0.54,3.7891 1.21,7.8516 2.03,12.1525 7.26,1.598 14.02,3.359 20.19,5.269 3.52,2.93 7.03,5.778 10.55,8.438 0,0.543 -0.31,0.82 -0.82,0.82 m -607.97,583.281 0.43,0 c 0.55,0 1.21,0.27 2.03,0.821 0.78,0.82 1.72,1.597 2.81,2.418 8.09,9.73 16.45,18.992 25.08,27.89 -8.9,-19.918 -17.15,-43.398 -24.69,-70.308 -0.54,-1.371 -0.39,-2.153 0.43,-2.422 0.51,-0.309 1.49,0 2.82,0.82 0.27,0.512 0.66,0.903 1.21,1.172 1.09,0.82 2.03,1.758 2.81,2.848 1.09,1.101 1.76,2.269 2.03,3.633 7.31,18.046 14.84,34.886 22.62,50.507 0.55,-9.961 1.64,-21.007 3.28,-33.121 0,-0.547 0.35,-0.976 1.17,-1.207 0.82,0.231 1.76,0.66 2.85,1.207 0.78,0.274 1.49,0.66 2.03,1.211 1.61,1.09 2.93,2.262 4.03,3.629 1.09,1.602 1.76,2.973 2.03,4.063 1.33,22.621 3.75,42.031 7.26,58.211 7.54,1.867 15.51,3.75 23.83,5.617 1.1,0 2.15,0.429 3.28,1.25 1.33,0.781 2.39,1.601 3.21,2.383 0.54,0.546 1.09,1.136 1.6,1.636 0.82,0.793 1.37,1.653 1.64,2.434 0,0.5 -0.39,0.816 -1.21,0.816 -9.18,-0.316 -17.78,-0.816 -25.86,-1.597 -0.27,-0.321 -0.94,-0.551 -2.03,-0.86 -0.55,-0.242 -1.37,-0.633 -2.42,-1.179 -8.64,-5.391 -17,-10.93 -25.08,-16.602 -0.78,-0.512 -1.6,-1.172 -2.39,-1.988 -1.13,-0.821 -1.91,-1.641 -2.46,-2.461 -10.78,-11.563 -21.13,-23.711 -31.13,-36.371 -0.78,-1.051 -1.33,-2.032 -1.6,-2.809 -0.27,-1.09 -0.12,-1.641 0.39,-1.641 m 732.42,-346.8 c 0.31,-0.539 0.71,-0.539 1.25,0 0.24,0.281 0.55,0.55 0.78,0.82 0.55,0.238 0.94,1.059 1.25,2.391 0.24,1.129 0.51,2.179 0.78,3.281 2.19,21.519 3.25,43.199 3.25,65.066 2.97,-18.59 5,-36.668 6.05,-54.207 0,-0.793 0.16,-1.492 0.43,-2 0.24,-0.269 0.55,-0.152 0.78,0.391 0.28,0 0.55,0.277 0.82,0.816 0.28,0.282 0.55,1.223 0.78,2.821 0.55,1.363 0.71,2.73 0.43,4.062 0,31.52 -3.08,64.301 -9.29,98.238 4.06,-5.121 7.54,-10 10.5,-14.57 0.55,-0.551 0.94,-0.551 1.22,0 0,0.281 0.11,0.941 0.42,2.031 l 0,1.602 c 0.24,1.058 0.24,2.308 0,3.637 -0.31,1.64 -0.54,2.691 -0.82,3.242 -4.29,9.179 -9.18,18.75 -14.57,28.711 l -1.21,1.207 c -0.54,0.551 -0.93,0.672 -1.17,0.39 -2.97,-1.597 -6.37,-3.359 -10.12,-5.269 -0.27,-0.238 -0.54,-0.668 -0.82,-1.168 -0.27,-0.82 -0.54,-1.762 -0.82,-2.852 -1.32,-15.359 -3.63,-31.41 -6.87,-48.09 l 0,-4.839 c 0.27,-1.653 0.66,-2.969 1.21,-4.071 0.27,-0.5 0.55,-0.929 0.82,-1.211 0.55,-1.089 1.09,-1.328 1.6,-0.781 0.82,0.242 1.37,0.902 1.64,1.992 2.97,10.782 5.51,21.289 7.66,31.532 4.57,-37.743 5.82,-74.223 3.67,-109.532 0,-1.609 0.12,-2.82 0.35,-3.64 m -243.32,-28.321 c 0.27,-2.648 1.33,-4.449 3.24,-5.23 1.06,-0.508 2.03,-1.207 2.86,-1.988 1.6,-0.86 3.47,-0.981 5.62,-0.43 2.15,0.777 3.95,2.141 5.27,4.019 13.48,17.809 26.02,35.7 37.58,53.75 2.46,-28.281 3.52,-55.082 3.24,-80.429 0,-25.313 -0.78,-49.02 -2.42,-71.129 0,-1.922 0.67,-3.25 1.99,-4.07 1.37,-0.5 2.97,-0.231 4.89,0.82 0.82,0.277 1.6,0.668 2.42,1.219 1.6,0.539 2.97,1.597 4.06,3.238 1.33,1.641 2.15,3.121 2.42,4.449 6.18,27.5 11.29,56.992 15.36,88.563 7.53,-25.082 13.71,-48.289 18.59,-69.571 0.23,-1.332 0.94,-2 2.03,-2 1.05,-0.308 2.27,-0.148 3.63,0.391 0.82,0.551 1.49,1.098 1.99,1.609 1.92,0.821 3.4,2.301 4.46,4.45 1.09,2.152 1.48,4.058 1.21,5.66 -1.33,41.25 -7.15,87.308 -17.38,138.242 12.38,-5.66 24.14,-11.051 35.15,-16.172 1.14,-0.512 2.19,-0.391 3.28,0.391 1.29,0.82 2.27,2.187 2.78,4.07 0.54,0.82 0.82,1.641 0.82,2.418 0.86,1.871 1.09,3.902 0.86,6.051 -0.32,2.148 -0.98,3.789 -2.03,4.89 -13.25,11.828 -27.78,24.489 -43.68,37.961 -1.32,0.821 -2.69,1.489 -4.06,2.039 -1.33,0 -2.65,-0.121 -4.02,-0.429 -12.39,-4.813 -25.74,-9.813 -40.04,-14.93 -1.6,-0.539 -3.09,-1.641 -4.45,-3.242 -1.61,-1.328 -2.66,-2.969 -3.21,-4.84 -12.11,-27.5 -25.86,-54.957 -41.25,-82.5 -1.05,-2.391 -1.48,-4.809 -1.21,-7.27 m 35.98,137.032 c 2.69,-10.231 7.26,-17.891 13.75,-23 6.48,-5.161 13.47,-6.493 21.01,-4.071 6.76,2.7 11.72,7.93 14.96,15.782 2.97,8.089 3.36,16.957 1.22,26.679 -2.7,9.418 -7.11,16.719 -13.36,21.84 -6.45,5.348 -13.21,7.379 -20.2,6.051 -7.54,-2.141 -12.93,-7.301 -16.17,-15.391 -3.2,-8.082 -3.63,-17.383 -1.21,-27.89 m 109.57,217.89 c -3.52,0.508 -5.28,-0.66 -5.28,-3.633 -0.27,-3.238 1.1,-7.687 4.03,-13.32 3.24,-5.937 6.87,-10.937 10.94,-15 4.33,-4.297 8.08,-6.84 11.29,-7.656 2.96,-0.274 4.6,1.367 4.88,4.848 0,3.242 -1.49,7.691 -4.46,13.359 -2.96,5.391 -6.48,10.082 -10.5,14.141 -4.07,3.75 -7.7,6.171 -10.9,7.261 M 4331.76,198.77 c 0.82,-6.45 4.33,-10.668 10.54,-12.54 5.9,-2.152 12.9,-1.492 20.98,2.032 7.85,3.519 14.3,8.629 19.42,15.347 5.11,6.493 7.57,13.211 7.26,20.2 -0.51,7.031 -3.63,11.601 -9.26,13.75 -5.66,2.421 -12.69,2.031 -21.05,-1.207 -8.63,-4.032 -15.63,-9.571 -20.98,-16.571 -5.43,-6.992 -7.73,-14.019 -6.91,-21.011 m 132.19,551.371 c -0.28,0 -0.51,-0.161 -0.83,-0.43 0,-5.633 -0.27,-11.57 -0.82,-17.781 0,-0.539 0.43,-1.36 1.25,-2.418 0.79,-1.371 1.72,-2.422 2.82,-3.242 0.82,-0.551 1.48,-1.098 2.03,-1.641 1.09,-0.777 1.99,-1.488 2.81,-1.988 1.09,-0.282 1.64,-0.161 1.64,0.39 1.88,3.239 3.63,6.481 5.27,9.68 17.23,-23.941 33.4,-51.289 48.48,-82.031 0.55,-1.36 1.33,-2.692 2.42,-4.02 1.1,-1.09 2.03,-1.801 2.86,-2.031 l 0.82,0 c 0.5,-0.277 0.78,-0.117 0.78,0.391 0.27,0.82 0.11,1.761 -0.43,2.808 -7.27,17.543 -14.81,33.832 -22.62,48.953 12.38,-16.492 23.98,-33.832 34.77,-52.152 0.5,-1.098 1.21,-2.027 1.99,-2.848 0.82,-0.793 1.36,-1.211 1.64,-1.211 0.27,-0.281 0.55,-0.398 0.82,-0.398 0.51,0 0.82,0.398 0.82,1.219 0,0.82 -0.43,1.871 -1.25,3.238 -15.86,29.609 -33.4,56.723 -52.54,81.25 8.09,-6.758 15.78,-13.481 23.05,-20.199 0.82,-0.821 1.48,-1.25 2.03,-1.25 -4.88,5.941 -9.85,11.718 -14.96,17.39 -6.45,6.211 -13.21,12.379 -20.24,18.59 -0.78,0.551 -1.6,1.09 -2.38,1.641 -0.82,0.777 -1.48,1.211 -2.03,1.211 -5.39,2.418 -10.94,4.687 -16.56,6.879 -0.82,0.23 -1.37,0.23 -1.64,0 m 56.21,-218.289 c -3.79,-1.09 -6.37,-4.571 -7.7,-10.5 -1.09,-5.942 -0.82,-12.973 0.78,-21.063 2.15,-8.078 5.12,-14.258 8.91,-18.59 3.79,-4.301 7.58,-5.777 11.33,-4.418 3.51,1.61 5.93,5.36 7.3,11.289 1.29,5.668 1.06,12.27 -0.82,19.809 -1.91,7.543 -4.73,13.473 -8.51,17.769 -3.75,4.34 -7.54,6.25 -11.29,5.704 m 8.86,-237.301 c 0.82,-0.512 1.76,-0.391 2.86,0.429 0.5,0.231 0.93,0.661 1.17,1.211 1.13,0.508 1.91,1.481 2.46,2.809 0.82,1.328 1.33,2.82 1.6,4.461 4.34,25.348 7.42,51.437 9.3,78.43 4.29,-22.379 7.38,-43.403 9.29,-63.082 0,-1.368 0.28,-2.149 0.82,-2.418 0.55,-0.243 1.06,-0.121 1.6,0.39 0.55,0.539 1.1,0.969 1.61,1.207 0.54,0.821 1.25,2.032 2.03,3.672 0.82,1.871 1.09,3.629 0.82,5.231 0.27,36.918 -3.36,76.289 -10.94,118.05 6.76,-5.39 13.09,-10.621 19.02,-15.781 0.79,-0.551 1.33,-0.551 1.61,0 0.82,0.82 1.36,1.871 1.64,3.238 0,0.551 0.11,1.211 0.39,2.032 l 0,4.851 c -0.28,1.641 -0.67,2.809 -1.21,3.629 -7.54,10.512 -15.79,21.559 -24.65,33.121 -0.82,0.821 -1.6,1.489 -2.42,2.039 -0.55,0.27 -1.22,0.27 -2.04,0 -6.48,-2.968 -13.47,-5.941 -21.01,-8.871 -0.82,-0.277 -1.49,-0.937 -2.03,-2.027 -0.78,-1.102 -1.33,-2.313 -1.6,-3.684 -5.39,-20.738 -11.88,-42.027 -19.42,-63.816 -0.82,-1.922 -1.05,-3.91 -0.82,-6.063 0.28,-2.148 0.94,-3.789 2.03,-4.879 l 1.6,-1.601 c 1.1,-0.777 2.19,-1.098 3.25,-0.777 1.09,0.5 2.03,1.597 2.81,3.199 7.03,14.301 13.36,28.277 19.02,42.027 4.57,-47.148 4.73,-91.476 0.43,-132.969 0,-1.91 0.24,-3.238 0.78,-4.058 M 4565,592.09 c 0.82,-1.641 1.48,-2.969 2.03,-4.059 0.55,-0.551 0.94,-1.062 1.21,-1.609 0.82,-0.82 1.37,-1.363 1.6,-1.641 0.55,0 0.82,0.278 0.82,0.821 0.79,7 1.33,13.476 1.61,19.378 12.14,-31.21 21.4,-63.832 27.89,-97.769 0.27,-1.641 0.7,-2.973 1.25,-4.07 0.5,-1.051 0.89,-1.481 1.17,-1.211 0.31,0.281 0.54,0.39 0.82,0.39 l 0.39,1.25 0,3.211 c -3.2,19.918 -7.15,39.328 -11.72,58.199 6.21,-16.41 11.6,-32.742 16.17,-48.91 -7.54,39.102 -19.8,75.711 -36.79,109.961 -2.66,0.821 -5.63,1.61 -8.87,2.43 -0.28,0.23 -0.55,0.23 -0.82,0 l 0,-1.609 c 1.09,-9.723 1.91,-20.071 2.42,-31.133 0,-1.09 0.31,-2.297 0.82,-3.629 m 15.78,-220.309 c -2.42,-2.429 -4.57,-6.609 -6.48,-12.543 -1.6,-5.668 -2.54,-11.597 -2.85,-17.777 -0.24,-6.211 0.43,-10.391 2.03,-12.539 1.64,-2.141 3.79,-2.031 6.48,0.398 2.42,2.692 4.45,6.75 6.06,12.141 1.91,5.668 2.85,11.289 2.85,16.961 0.23,5.93 -0.43,10.109 -2.03,12.539 -1.61,2.687 -3.64,2.961 -6.06,0.82 m -52.54,263.938 c -0.54,0.551 -1.09,0.82 -1.64,0.82 -5.66,0.781 -11.56,1.602 -17.81,2.422 -0.78,0 -1.33,-0.152 -1.6,-0.391 -0.55,-0.539 -0.78,-1.25 -0.78,-2.031 -0.82,-12.418 -2.31,-25.738 -4.46,-40 0,-1.129 0.24,-2.578 0.78,-4.449 0.82,-1.918 1.92,-3.399 3.25,-4.449 0.54,-0.821 1.09,-1.653 1.64,-2.469 1.05,-0.781 2.15,-1.32 3.2,-1.602 0.82,0 1.37,0.43 1.64,1.211 3.24,8.91 5.9,17.391 8.09,25.469 15.07,-39.102 26.4,-80.148 33.94,-123.281 0.28,-2.149 0.78,-3.789 1.6,-4.84 1.1,-1.098 1.92,-1.488 2.46,-1.207 0.51,0 0.94,0.109 1.18,0.387 0.54,0.269 0.97,0.929 1.25,2.031 0.54,1.332 0.66,2.691 0.39,4.058 -2.7,25.313 -6.76,49.813 -12.15,73.563 10,-22.66 18.36,-45.281 25.08,-67.93 0.54,-1.332 1.09,-2.312 1.6,-2.82 0.55,-0.82 1.09,-1.09 1.64,-0.82 0.27,0.281 0.51,0.39 0.82,0.39 0.51,0.278 0.94,1.25 1.17,2.86 0,1.359 -0.12,2.961 -0.35,4.839 -9.45,38.551 -22.54,75.981 -39.22,112.379 7.54,-7.539 14.65,-14.961 21.41,-22.218 0.82,-0.551 1.33,-0.821 1.64,-0.821 0.51,0.27 0.78,0.821 0.78,1.641 0,0.5 -0.12,1.051 -0.43,1.598 0,0.781 -0.24,2.031 -0.78,3.632 -0.55,1.368 -1.21,2.539 -2.03,3.629 -8.91,12.11 -18.87,24.258 -29.89,36.371 -0.82,0.821 -1.64,1.481 -2.42,2.028 m 38.4,-6.481 c 1.33,-0.238 1.99,0.703 1.99,2.852 -5.11,9.961 -10.51,19.531 -16.17,28.711 -1.05,0.777 -1.87,1.328 -2.42,1.597 -1.88,0.821 -2.7,-0.117 -2.42,-2.847 0.54,-2.66 2.03,-6.289 4.45,-10.903 2.42,-4.839 5,-9.136 7.66,-12.929 2.97,-3.508 5.27,-5.66 6.91,-6.481 m 47.66,-158.437 c -0.24,-1.063 -0.24,-2.313 0,-3.629 0,-0.512 0.15,-0.942 0.43,-1.211 -0.28,2.141 -0.43,4.141 -0.43,6.051 l 0,-1.211 m -35.94,49.73 c -1.64,6.438 -2.31,11.867 -2.03,16.168 0.27,4.571 1.37,7.11 3.2,7.653 1.92,0.277 3.95,-1.481 6.09,-5.231 2.43,-3.519 4.3,-8.199 5.67,-14.141 1.33,-5.941 2.03,-11.171 2.03,-15.781 -0.31,-4.301 -1.37,-6.988 -3.24,-8.09 -1.92,-0.507 -3.95,0.981 -6.1,4.461 -2.14,3.782 -4.02,8.75 -5.62,14.961"
         inkscape:connector-curvature="0"
         id="path14"
         style="fill:#2c60a4;fill-opacity:1;fill-rule:evenodd;stroke:none" /><path
         d="m 3999.88,799.82 c -11.83,-8.898 -23.71,-18.832 -35.54,-29.879 -1.06,-0.82 -1.76,-1.601 -2.04,-2.461 0,-0.82 0.43,-1.171 1.22,-1.171 l 1.25,0 c 0.78,0 1.83,0.351 3.2,1.171 1.37,0.551 2.58,1.211 3.63,2.032 10.24,8.09 20.63,15.777 31.13,23.047 -4.57,-16.168 -8.78,-35.981 -12.53,-59.418 -0.28,-1.09 0.11,-1.75 1.21,-2.032 1.36,-0.269 2.97,0 4.84,0.821 0.86,0.281 1.64,0.672 2.46,1.211 1.33,0.55 2.66,1.371 4.02,2.429 1.1,1.09 1.76,2.032 2.04,2.809 5.66,15.941 11.44,30.191 17.38,42.851 5.94,-8.32 12.54,-17.769 19.76,-28.281 0.55,-0.777 1.49,-1.211 2.86,-1.211 1.09,0 2.42,0.274 4.06,0.782 1.05,0.308 2.15,0.55 3.2,0.82 1.92,0.82 3.52,1.762 4.88,2.851 1.06,1.329 1.49,2.418 1.18,3.239 -6.45,19.379 -11.84,35.429 -16.18,48.09 11.37,1.05 22.93,1.871 34.81,2.421 1.33,0 2.69,0.27 4.02,0.821 1.6,0.547 2.85,1.09 3.64,1.597 0.54,0.282 0.93,0.551 1.24,0.782 1.06,0.859 1.49,1.488 1.18,2.031 -0.24,0.547 -0.94,0.816 -2,0.816 -14.02,1.102 -27.38,1.371 -40.03,0.832 -0.82,0.27 -1.72,0.27 -2.86,0 -1.05,-0.281 -2.11,-0.711 -3.2,-1.218 -11.05,-3.75 -21.83,-7.813 -32.34,-12.141 -1.06,-0.512 -2.31,-1.063 -3.64,-1.609 -0.82,-0.543 -1.75,-1.211 -2.85,-2.032 m 22.66,10.942 c 5.66,2.148 10.39,4.41 14.14,6.84 3.75,2.457 5.66,4.609 5.66,6.476 -0.23,1.602 -2.14,2.313 -5.66,2.031 -3.48,-0.269 -7.93,-1.371 -13.32,-3.238 -5.16,-1.883 -9.57,-4.18 -13.36,-6.883 -3.75,-2.418 -5.78,-4.566 -6.05,-6.437 -0.28,-1.641 1.36,-2.461 4.84,-2.461 3.51,0.308 8.09,1.48 13.75,3.672 m 368.67,-38.403 c 4.57,-0.82 7.27,-0.429 8.09,1.211 1.05,1.879 0,4.571 -3.28,8.09 -3.21,3.199 -7.39,6.328 -12.5,9.262 -4.85,2.726 -9.73,4.609 -14.54,5.699 -9.72,1.328 -11.87,-1.371 -6.48,-8.09 3.52,-3.511 7.97,-6.75 13.32,-9.722 5.39,-3.239 10.51,-5.387 15.39,-6.45 m -28.32,-23.871 c 0.82,-1.316 2.03,-2.418 3.63,-3.238 0.82,-0.512 1.76,-1.051 2.82,-1.602 1.36,-0.82 2.73,-1.367 4.06,-1.597 1.64,-0.27 2.69,-0.16 3.24,0.39 5.12,4.571 10.12,8.911 14.92,12.93 18.91,-26.41 36.96,-57.66 54.22,-93.793 0.55,-1.598 1.72,-3.09 3.63,-4.406 1.61,-1.371 2.97,-2.031 4.03,-2.031 0.78,-0.282 1.48,-0.403 2.03,-0.403 0.78,0 1.48,0.403 2.03,1.184 0.23,0.816 0.12,1.906 -0.43,3.277 -7.27,20.973 -15.08,40.231 -23.44,57.77 16.45,-18.59 31.96,-38.668 46.49,-60.231 0.54,-1.328 1.48,-2.418 2.81,-3.25 1.09,-0.777 2.03,-1.316 2.85,-1.597 l 1.6,0 c 1.1,-0.27 1.64,0.281 1.64,1.597 0,1.102 -0.43,2.434 -1.21,4.071 -20.51,34.761 -42.19,65.472 -65.08,92.152 11.57,-7 22.74,-14.031 33.52,-21.02 1.09,-1.089 2.03,-1.601 2.85,-1.601 0.82,0 1.21,0.269 1.21,0.82 l 0,0.781 c 0,0.547 -0.39,1.368 -1.21,2.418 -0.82,1.371 -1.91,2.422 -3.24,3.243 -13.98,10.789 -28.67,21.136 -44.06,31.136 l -3.25,1.602 c -1.05,0.551 -2.14,0.941 -3.2,1.25 -8.63,1.832 -17.54,3.59 -26.68,5.23 -1.09,0.282 -2.03,0.282 -2.85,0 -0.55,0 -0.94,-0.308 -1.21,-0.82 -4.02,-6.441 -8.2,-13.629 -12.54,-21.398 -0.27,-0.821 0,-1.762 0.82,-2.864 M 4191.48,453.809 c -12.65,-3.75 -22.22,-11.059 -28.67,-21.797 -6.21,-10.782 -7.54,-22.543 -4.02,-35.192 3.75,-12.109 10.9,-21.14 21.41,-27.082 10.5,-5.617 21.79,-6.988 33.94,-4.019 12.11,3.75 21.17,10.742 27.11,20.98 6.17,10.539 7.93,21.871 5.23,33.981 -3.51,12.39 -10.35,21.718 -20.62,27.89 -10.51,6.211 -21.95,7.969 -34.38,5.239 m 145.94,-124.887 c -23.16,12.656 -48.2,26.289 -75.19,40.816 -1.88,1.102 -4.03,1.762 -6.45,2.043 -2.42,0 -4.84,-0.281 -7.3,-0.82 -22.35,-7.039 -45.12,-13.441 -68.28,-19.383 -2.43,-0.816 -4.73,-1.906 -6.88,-3.277 -2.15,-1.602 -3.79,-3.321 -4.84,-5.231 -16.45,-27.468 -31.68,-53.09 -45.71,-76.8 -1.32,-1.918 -1.48,-4.032 -0.39,-6.489 0.82,-2.14 2.42,-3.902 4.85,-5.23 1.36,-0.821 2.73,-1.602 4.06,-2.422 2.15,-1.098 4.45,-1.488 6.87,-1.207 2.7,0.269 4.69,1.207 6.06,2.808 14.57,14.571 29.61,30.309 45.23,47.301 11.6,-55.781 21.6,-103.75 29.96,-143.902 0.24,-1.598 1.49,-2.848 3.64,-3.641 2.15,-0.816 4.45,-0.929 6.83,-0.386 1.14,0.277 2.19,0.507 3.28,0.82 1.88,0.508 3.48,1.328 4.81,2.387 1.64,1.363 2.3,2.73 2.03,4.019 2.19,24.262 4.02,51.371 5.7,81.293 15.63,-25.043 29.77,-47.699 42.42,-67.93 0.55,-1.05 1.76,-1.871 3.64,-2.421 1.6,-0.282 3.36,-0.122 5.23,0.429 1.1,0.512 2.31,0.942 3.63,1.172 2.19,0.82 4.07,2.149 5.71,4.059 1.33,1.879 1.72,3.64 1.17,5.281 -11.29,39.289 -25.43,86.359 -42.42,141.051 21.56,-5.621 42.15,-10.942 61.83,-15.742 1.88,-0.551 3.91,-0.161 6.06,1.21 2.19,1.051 3.91,2.661 5.27,4.84 0.55,0.782 1.1,1.719 1.6,2.821 1.37,2.418 1.76,4.839 1.21,7.3 -0.23,2.379 -1.48,4.137 -3.63,5.231"
         inkscape:connector-curvature="0"
         id="path16"
         style="fill:#bd1a8d;fill-opacity:1;fill-rule:evenodd;stroke:none" /><path
         d="m 3786.48,436.461 c -3.51,-16.723 -6.32,-33.039 -8.47,-48.941 0,-1.329 0.11,-2.809 0.39,-4.45 0.27,-1.332 0.55,-2.539 0.78,-3.64 0.55,-0.508 0.98,-1.051 1.25,-1.602 0.23,-0.816 0.66,-1.047 1.21,-0.816 0.51,0 0.94,0.547 1.21,1.597 2.15,10.282 4.73,20.782 7.7,31.563 3.75,-40.434 11.4,-80.031 23,-118.82 0.55,-1.922 1.22,-3.524 2.04,-4.891 1.09,-1.051 1.87,-1.602 2.42,-1.602 l 0.82,0 c 0.55,0 0.94,0.551 1.21,1.602 0.27,0.82 0.27,1.918 0,3.25 -5.39,23.711 -9.42,48.238 -12.15,73.59 7.31,-23.981 16.45,-47.852 27.5,-71.563 0.55,-1.328 1.21,-2.578 2.03,-3.636 1.1,-0.821 1.88,-1.09 2.38,-0.821 l 1.25,0 c 1.1,0 1.61,0.821 1.61,2.43 0.31,1.641 0,3.359 -0.82,5.269 -15.63,42.579 -26.8,85.122 -33.52,127.731 6.45,-5.391 13.59,-10.93 21.41,-16.563 0.82,-0.546 1.64,-0.546 2.42,0 0.82,0.782 1.37,1.883 1.6,3.204 0.31,0.82 0.43,1.609 0.43,2.429 0.55,1.598 0.7,3.391 0.39,5.231 -0.27,2.187 -0.82,3.668 -1.6,4.449 -9.45,11.059 -17.93,21.449 -25.47,31.18 -0.55,0.5 -1.09,0.929 -1.64,1.168 -0.78,0 -1.48,-0.118 -1.99,-0.387 -5.39,-4.301 -10.35,-8.363 -14.96,-12.152 -0.51,-0.239 -1.1,-0.782 -1.64,-1.598 -0.24,-1.063 -0.51,-2.152 -0.79,-3.211 m 8.09,59.379 c -2.73,-2.66 -4.84,-6.84 -6.48,-12.5 -1.61,-5.668 -2.31,-11.602 -2,-17.809 0.28,-6.179 1.33,-10.75 3.21,-13.711 1.87,-2.968 4.02,-3.519 6.48,-1.648 2.7,2.148 4.96,6.367 6.88,12.539 1.6,5.937 2.26,12.269 2.03,18.988 0,6.481 -0.98,11.051 -2.85,13.789 -2.15,2.653 -4.57,2.813 -7.27,0.352 M 4103.4,134.469 c 2.15,0 3.75,0.703 4.84,2.031 0.78,1.371 0.67,2.852 -0.39,4.461 -12.42,18.59 -24.96,39.059 -37.62,61.437 -12.93,22.071 -25.58,46.09 -38,71.954 19.96,-9.141 40.7,-17.774 62.26,-25.864 2.15,-0.816 4.3,-0.929 6.45,-0.418 2.46,0.821 4.06,2.032 4.88,3.629 0.23,0.821 0.66,1.641 1.21,2.461 1.06,1.871 1.06,3.91 0,6.051 -1.09,2.43 -2.69,4.34 -4.84,5.629 -28.05,15.39 -54.57,31.68 -79.65,48.941 -1.6,1.367 -3.36,2.309 -5.24,2.86 -1.91,0.23 -3.78,0.23 -5.7,0 -15.35,-2.969 -30,-5.711 -44.02,-8.09 -1.33,-0.313 -2.58,-0.981 -3.63,-2.031 -1.1,-0.821 -1.92,-2.032 -2.47,-3.668 -6.99,-20.473 -13.2,-39.614 -18.59,-57.391 -0.55,-1.602 -0.35,-3.359 0.43,-5.27 1.06,-2.152 2.42,-3.871 4.02,-5.23 0.82,-0.551 1.76,-1.223 2.86,-2.039 1.32,-1.363 2.81,-2.031 4.45,-2.031 1.6,0 2.81,0.55 3.63,1.64 6.72,10.508 14.02,21.68 21.84,33.559 16.68,-49.61 34.61,-92.578 53.75,-128.988 0.82,-1.602 2.15,-2.93 4.02,-4.024 2.19,-1.09 4.22,-1.598 6.06,-1.598 0.82,-0.269 1.64,-0.269 2.42,0 1.64,0 2.85,0.391 3.63,1.211 0.82,0.547 0.98,1.481 0.43,2.809 -5.66,21.059 -11.45,44.461 -17.38,70.352 19.41,-25.582 38.55,-48.633 57.38,-69.102 1.37,-1.129 2.85,-2.031 4.45,-2.852 1.92,-0.546 3.64,-0.82 5.28,-0.82 1.09,0 2.14,0.16 3.24,0.391 m 358.55,-0.778 c 0.78,0 1.72,0.387 2.82,1.207 0.82,0.551 1.48,0.942 1.99,1.211 0.82,0.512 1.79,1.332 2.85,2.422 0.78,1.059 1.48,2.039 2.03,2.86 7.81,16.168 15.24,33.781 22.23,52.929 0.78,-13.211 1.21,-25.199 1.21,-35.98 0,-0.551 0.27,-0.781 0.82,-0.781 0.51,0 1.17,0.39 1.99,1.171 0.55,0.309 1.09,0.7 1.64,1.25 1.33,0.782 2.42,1.84 3.2,3.2 1.1,1.371 1.76,2.582 2.04,3.64 4.84,22.649 8.24,49.059 10.11,79.25 6.76,-0.82 13.05,-1.48 18.99,-2.031 0.82,0 1.64,0.391 2.46,1.211 0.78,1.102 1.6,2.309 2.42,3.641 0.23,0.539 0.55,1.089 0.78,1.64 0.82,1.598 1.37,3.078 1.6,4.449 0,1.329 -0.23,2.149 -0.78,2.379 -6.17,4.571 -13.08,9.571 -20.62,14.961 -0.55,0.282 -1.21,0.43 -2.03,0.43 -0.82,-0.309 -1.72,-0.699 -2.82,-1.25 -8.63,-6.719 -17.81,-13.32 -27.5,-19.801 -1.05,-0.777 -2.15,-1.719 -3.2,-2.808 -1.37,-1.332 -2.3,-2.7 -2.85,-4.032 -11.84,-19.961 -24.38,-39.097 -37.58,-57.418 -1.09,-1.601 -1.76,-3.089 -2.03,-4.453 0,-1.328 0.39,-2.148 1.21,-2.418 0.55,-0.281 1.05,-0.398 1.6,-0.398 0.82,-0.543 2.03,-0.391 3.63,0.398 1.37,0.821 2.58,1.871 3.68,3.239 10.78,12.382 21.01,25.191 30.7,38.402 -5.66,-33.172 -12.81,-62 -21.41,-86.492 -0.31,-1.09 0,-1.758 0.82,-2.028 M 3967.58,388.34 c -7.27,-2.418 -12.38,-7.539 -15.35,-15.352 -2.97,-7.816 -3.28,-16.597 -0.82,-26.289 2.97,-9.687 7.93,-17.23 14.96,-22.66 6.72,-5.348 14.02,-7.539 21.83,-6.398 7.78,1.597 13.32,6.398 16.57,14.488 3.2,7.851 3.51,16.992 0.78,27.543 -3.21,10.5 -8.44,18.43 -15.75,23.816 -7.03,5.403 -14.41,7 -22.22,4.852 m 535.97,-75.59 c -4.84,-3.75 -9.14,-9.02 -12.93,-15.738 -3.51,-7.032 -5.39,-14.184 -5.66,-21.442 0,-6.449 1.6,-10.789 4.88,-12.929 3.21,-2.153 7.39,-1.493 12.5,2.031 4.85,3.469 8.91,8.469 12.15,14.918 3.21,6.48 4.96,13.082 5.24,19.84 0,6.718 -1.49,11.289 -4.46,13.75 -2.97,2.66 -6.83,2.539 -11.72,-0.43"
         inkscape:connector-curvature="0"
         id="path18"
         style="fill:#f7941e;fill-opacity:1;fill-rule:evenodd;stroke:none" /><path
         d="m 4292.19,52.4414 c 6.72,2.1484 12.11,4.8398 16.13,8.0898 4.3,3.1993 6.33,6.3204 6.09,9.2891 -0.54,3.25 -3.39,5.1211 -8.51,5.6289 -5.39,0.5391 -11.72,-0.1211 -18.99,-1.9883 -7.26,-2.1523 -12.93,-4.8515 -16.99,-8.0898 -4.3,-3.2422 -6.05,-6.332 -5.27,-9.3008 1.09,-2.6914 4.18,-4.4492 9.33,-5.2305 5.12,-0.5507 11.18,0 18.21,1.6016 m 56.56,-2.0312 c 1.09,0 2.27,0.2695 3.63,0.8203 1.33,0.5078 2.42,1.2109 3.24,1.9883 0.51,0.3124 0.94,0.7031 1.22,1.25 1.09,0.5507 1.6,1.2109 1.6,2.0312 0,0.5117 -0.51,0.7812 -1.6,0.7812 -12.11,-0.2695 -25.08,0 -38.79,0.8204 l -3.28,0 c -1.33,-0.2735 -2.66,-0.6602 -4.03,-1.211 -12.38,-3.789 -25.04,-7.3008 -38.01,-10.5 -1.32,-0.2812 -2.65,-0.8203 -4.02,-1.6094 -1.33,-0.5429 -2.42,-1.1328 -3.24,-1.6406 -11.33,-7.8125 -22.23,-14.9609 -32.74,-21.4414 -0.82,-0.5078 -1.05,-1.0586 -0.82,-1.5976 0.28,-0.2813 1.1,-0.5508 2.43,-0.8204 l 2.03,0 c 1.09,-0.2421 2.42,-0.2421 4.02,0 1.37,0.2696 2.58,0.5391 3.63,0.8204 9.46,4.5703 19.3,9.4101 29.53,14.5703 0.55,-5.711 0.98,-10.9414 1.22,-15.7813 7.85,1.6406 15.5,3.3477 23.04,5.2696 0,0.5117 0.12,0.9414 0.43,1.1679 0.51,-0.2265 0.9,-0.5078 1.17,-0.7773 7.58,2.1484 15,4.4101 22.27,6.8711 -1.91,4.5664 -3.95,9.6875 -6.09,15.3593 11.6,0.8204 22.65,2.0274 33.16,3.629 M 4208.48,746.461 c 0.54,-1.32 1.75,-2.262 3.63,-2.813 1.09,-0.546 2.15,-0.937 3.24,-1.207 1.64,-0.55 3.52,-0.82 5.67,-0.82 1.91,0.27 3.36,0.66 4.45,1.207 10.51,7.543 20.58,14.453 30.31,20.633 14.53,-28.012 29.81,-62.231 45.67,-102.66 0.82,-1.91 2.3,-3.52 4.45,-4.879 2.42,-1.332 4.72,-2 6.87,-2 1.1,0.277 2,0.398 2.82,0.398 1.91,0 3.24,0.539 4.06,1.602 1.05,1.359 1.37,2.726 0.82,4.058 -5.16,24.532 -10.51,46.872 -16.17,67.11 18.55,-19.692 37.3,-41.52 56.17,-65.512 0.78,-1.328 2.15,-2.539 4.06,-3.629 1.88,-0.777 3.48,-1.211 4.81,-1.211 l 2.85,0 c 1.6,0 2.85,0.821 3.63,2.461 0.55,1.602 0.27,3.199 -0.78,4.801 -24.53,39.379 -48.67,72.781 -72.38,100.281 15.89,-5.39 31.4,-11.332 46.48,-17.82 1.64,-0.781 3.13,-1.211 4.45,-1.211 1.37,0 2.31,0.43 2.86,1.211 0,0.277 0.11,0.551 0.39,0.82 0.27,0.821 0,1.918 -0.82,3.25 -1.06,1.09 -2.43,1.989 -4.03,2.809 -18.87,10.23 -38.12,19.41 -57.81,27.5 -1.33,0.82 -2.81,1.332 -4.45,1.64 -1.33,0.231 -2.7,0.348 -4.03,0.348 -12.97,0.313 -26.01,0 -39.22,-0.777 -1.64,0 -2.96,-0.121 -4.06,-0.391 -1.33,-0.551 -2.26,-1.09 -2.81,-1.64 -9.73,-9.141 -19.96,-19.258 -30.7,-30.309 -0.82,-0.82 -0.98,-1.883 -0.43,-3.25 m 56.99,38.008 c 6.76,0 11.44,1.211 14.18,3.633 2.42,2.148 2.26,5 -0.43,8.519 -2.97,3.199 -7.42,5.899 -13.32,8.09 -5.94,2.141 -12.31,3.199 -19.02,3.199 -6.49,-0.269 -11.18,-1.488 -14.15,-3.629 -2.69,-2.152 -2.96,-4.851 -0.82,-8.09 2.74,-3.48 7.19,-6.332 13.36,-8.48 6.49,-2.141 13.21,-3.242 20.2,-3.242 M 4158.79,552.871 c -28.32,13.16 -54.88,25.039 -79.65,35.59 -1.6,0.777 -3.52,1.168 -5.66,1.168 -2.15,-0.277 -4.18,-0.668 -6.06,-1.168 -18.59,-6.762 -36.52,-13.789 -53.79,-21.063 -1.6,-0.546 -3.36,-1.597 -5.23,-3.199 -1.6,-1.371 -2.97,-2.969 -4.06,-4.879 -15.32,-25.859 -29.34,-52.109 -42.04,-78.832 -1.05,-2.418 -1.48,-4.847 -1.21,-7.269 0.55,-2.418 1.64,-4.297 3.25,-5.66 0.78,-0.547 1.6,-1.207 2.42,-2.028 1.64,-1.062 3.36,-1.332 5.27,-0.793 1.88,0.793 3.36,2.043 4.45,3.641 12.11,18.59 25.04,36.91 38.79,54.961 1.88,-31.25 5.24,-63.168 10.12,-95.781 4.84,-32.618 11.45,-65.118 19.81,-97.418 0.78,-2.7 2.42,-4.969 4.8,-6.879 2.46,-1.602 4.88,-2.301 7.3,-2.032 1.1,0.27 2.15,0.551 3.25,0.821 2.15,0.269 3.79,1.211 4.84,2.808 1.33,1.922 1.91,3.95 1.6,6.102 -4.29,40.391 -6.17,82.027 -5.62,124.879 8.59,-18.871 17.89,-37.852 27.89,-56.988 9.96,-19.114 20.58,-38.133 31.91,-57 1.37,-2.141 3.24,-3.633 5.67,-4.454 2.42,-1.328 4.84,-1.757 7.26,-1.207 1.33,0.547 2.81,0.938 4.45,1.207 2.93,0.551 5.24,2.153 6.88,4.84 1.33,2.973 1.48,5.942 0.39,8.91 -14.02,34.774 -26.41,68.832 -37.19,102.274 -10.78,33.43 -20.35,65.187 -28.67,95.387 21.29,-5.118 43.63,-10.778 67.07,-16.957 2.7,-0.821 5.39,-0.704 8.09,0.386 2.42,0.832 4.33,2.434 5.66,4.852 0.55,0.82 1.21,1.762 2.03,2.851 1.1,2.149 1.33,4.571 0.78,7.27 -0.78,2.687 -2.42,4.57 -4.8,5.66 m -125.74,84.449 c -8.91,-3.511 -15.9,-8.98 -21.02,-16.558 -5.39,-7.274 -7.81,-14.801 -7.26,-22.621 1.05,-8.082 4.84,-13.629 11.28,-16.602 6.76,-2.969 14.69,-2.809 23.87,0.43 9.73,4.019 17.27,9.812 22.62,17.383 5.66,7.82 7.97,15.75 6.91,23.828 -1.64,7.308 -5.82,12.269 -12.54,14.961 -7.03,2.699 -15,2.429 -23.86,-0.821"
         inkscape:connector-curvature="0"
         id="path20"
         style="fill:#a6ce39;fill-opacity:1;fill-rule:evenodd;stroke:none" /><path
         d="m 4269.1,107.441 c 1.92,0.508 3.4,1.329 4.45,2.379 0.55,0.551 1.1,1.102 1.65,1.641 1.05,1.098 1.48,2.148 1.17,3.211 -0.51,1.359 -1.6,2.148 -3.21,2.457 -19.92,4.801 -40.97,10.742 -63.08,17.769 -1.33,0.821 -3.09,1.211 -5.24,1.211 -1.87,0 -3.63,-0.148 -5.27,-0.39 -16.95,-3.239 -33.67,-5.938 -50.12,-8.078 -1.87,0 -3.51,-0.43 -4.8,-1.25 -1.68,-0.512 -2.74,-1.332 -3.28,-2.43 -10.75,-12.109 -20.86,-23.281 -30.32,-33.5118 -0.78,-1.0976 -0.93,-2.1484 -0.39,-3.2383 1.1,-0.8203 2.43,-1.6406 4.03,-2.4297 0.82,-0.5429 1.76,-0.9296 2.85,-1.25 1.6,-0.7812 3.36,-1.1718 5.23,-1.1718 1.92,0.2812 3.25,0.6718 4.07,1.1718 9.96,5.9376 20.35,12.6993 31.13,20.2388 9.96,-25.8598 18.98,-47.5786 27.07,-65.0786 0.55,-0.8203 1.64,-1.332 3.24,-1.6406 1.6,-0.5117 3.2,-0.6602 4.84,-0.3516 0.79,0 1.65,0.1211 2.43,0.3516 1.33,0 2.54,0.3086 3.63,0.8203 1.09,0.5508 1.48,1.0898 1.21,1.6406 0.27,10.5078 0.55,22.5 0.82,35.9375 12.38,-11.5586 24.1,-21.6797 35.16,-30.3086 0.54,-0.2422 1.48,-0.5117 2.85,-0.789 1.6,0 3.08,0.1172 4.45,0.4296 0.78,0.2383 1.72,0.3594 2.81,0.3594 1.61,0.5391 2.97,1.1289 4.03,1.6406 1.09,1.0899 1.48,1.8672 1.25,2.418 -11.06,16.9922 -23.87,38.2813 -38.4,63.8708 17.23,-2.699 34.06,-4.851 50.51,-6.449 1.6,-0.312 3.36,0 5.23,0.82 m -114.76,70.309 c -9.18,-1.602 -15.79,-5 -19.81,-10.109 -4.06,-5.121 -4.73,-10.903 -2.03,-17.391 3.24,-5.898 8.63,-10.512 16.17,-13.75 7.81,-2.969 16.17,-3.898 25.04,-2.809 8.91,1.598 15.51,4.84 19.81,9.688 4.57,5.109 5.82,10.781 3.67,16.949 -2.74,6.25 -8.09,10.942 -16.17,14.184 -8.09,3.238 -17,4.297 -26.68,3.238 m -205.39,552.539 c -5.9,-3.199 -10.86,-7.258 -14.93,-12.109 -4.33,-4.84 -6.87,-9.289 -7.65,-13.321 -0.55,-4.328 0.9,-6.91 4.41,-7.687 3.52,-0.551 8.24,0.777 14.14,4.058 6.49,3.481 11.99,7.661 16.56,12.54 4.34,5.082 6.76,9.8 7.31,14.14 0.27,3.75 -1.49,5.899 -5.27,6.442 -3.75,0.507 -8.64,-0.821 -14.57,-4.063 m 64.68,-29.488 c -15.62,3.519 -30.31,6.597 -44.06,9.301 -0.78,0 -1.87,-0.122 -3.2,-0.391 -1.1,-0.281 -2.31,-0.711 -3.64,-1.223 -12.42,-6.207 -24.25,-12.687 -35.58,-19.41 -1.1,-0.547 -2.15,-1.367 -3.24,-2.418 -1.33,-1.09 -2.43,-2.308 -3.25,-3.629 -12.93,-17 -25.31,-34.769 -37.14,-53.359 -0.82,-1.641 -1.37,-3.133 -1.64,-4.461 0,-1.641 0.39,-2.57 1.21,-2.813 0.27,-0.308 0.66,-0.546 1.21,-0.82 0.82,-0.547 1.75,-0.43 2.85,0.391 1.33,0.82 2.54,1.922 3.59,3.242 10,13.48 20.51,26.57 31.56,39.219 -6.48,-35.309 -10.39,-75.969 -11.75,-122.11 0,-2.148 0.7,-3.75 2.03,-4.8 1.37,-0.821 2.85,-0.821 4.45,0 0.55,0.23 1.25,0.66 2.03,1.171 1.37,0.821 2.54,2.028 3.64,3.629 1.09,1.641 1.75,3.399 2.03,5.282 4.29,30.187 9.72,58.507 16.13,84.878 5.94,-20.199 12.85,-42.308 20.62,-66.25 0.55,-1.371 1.49,-2.339 2.86,-2.851 1.6,-0.551 3.08,-0.43 4.45,0.391 1.09,0.269 2.15,0.66 3.24,1.21 2.15,1.051 3.91,2.848 5.24,5.27 1.36,2.391 1.87,4.57 1.64,6.449 -7.31,43.121 -12,80.313 -14.14,111.563 12.38,0 25.31,-0.391 38.75,-1.211 1.64,0.269 3.28,0.66 4.88,1.211 1.87,1.09 3.36,2.308 4.45,3.629 0.55,0.55 1.06,1.25 1.6,2.031 1.37,1.367 1.92,2.699 1.6,4.027 0,1.371 -0.78,2.301 -2.42,2.852 m 369.89,-118.832 c 1.09,-2.418 2.53,-4.328 4.45,-5.66 1.05,-0.821 2.11,-1.637 3.24,-2.418 1.6,-1.102 3.2,-1.762 4.81,-2.039 1.91,0.277 3.28,0.937 4.06,2.039 7.54,12.097 14.69,23.55 21.44,34.371 18.32,-49.063 31.8,-101.481 40.43,-157.274 0.24,-2.418 1.17,-4.449 2.82,-6.047 1.32,-1.371 2.81,-1.761 4.45,-1.211 0.51,0.27 1.05,0.508 1.6,0.821 1.37,0.508 2.42,1.48 3.24,2.808 0.55,1.641 0.78,3.36 0.78,5.282 -1.6,32.847 -5.11,64.757 -10.5,95.781 14.57,-28.563 26.79,-57.152 36.79,-85.711 0.55,-1.602 1.37,-2.813 2.42,-3.633 1.1,-0.816 2.04,-0.937 2.86,-0.387 0.78,0.231 1.48,0.387 2.03,0.387 1.05,0.551 1.83,1.883 2.38,4.063 0.55,1.839 0.55,3.871 0,6.058 -12.66,49.289 -30.16,96.602 -52.54,141.832 12.66,-8.59 24.65,-17.07 36.02,-25.429 1.05,-0.821 2.11,-1.09 3.2,-0.821 0.82,0.278 1.37,0.938 1.6,2.039 l 0,1.989 c 0.28,1.132 0,2.582 -0.78,4.453 -0.82,2.148 -1.76,3.789 -2.85,4.879 -14.81,14.257 -30.7,28.398 -47.7,42.429 -1.09,0.821 -2.3,1.481 -3.63,2.032 -1.33,0.777 -2.58,1.207 -3.63,1.207 l -32.78,0 c -1.32,0 -2.38,-0.278 -3.2,-0.778 -1.09,-0.82 -1.76,-1.801 -2.03,-2.859 -5.66,-16.172 -11.99,-33.711 -18.98,-52.531 -0.82,-1.653 -0.82,-3.52 0,-5.672 m 40.39,65.082 c 5.43,0 8.79,2.148 10.11,6.437 1.37,4.34 0.28,9.731 -3.2,16.184 -3.52,6.476 -8.4,11.867 -14.57,16.168 -5.94,4.332 -11.84,6.762 -17.77,7.301 -5.94,0.238 -9.69,-1.641 -11.33,-5.661 -1.88,-4.058 -1.1,-9.339 2.42,-15.781 3.79,-6.988 8.91,-12.808 15.35,-17.379 6.49,-4.582 12.81,-7 18.99,-7.269"
         inkscape:connector-curvature="0"
         id="path22"
         style="fill:#00b4e6;fill-opacity:1;fill-rule:evenodd;stroke:none" /><path
         d="m 400.039,814.512 96.09,0 0,-33.75 -25.777,0 -84.692,-262.34 -59.68,0 -80.32,257.969 -74.058,-257.969 -59.063,0 -86.4101,262.34 -26.0898375,0 0,33.75 96.0898375,0 0,-33.75 -25.7773,0 71.5584,-227.5 75.629,261.25 58.441,0 80.469,-261.25 72.961,227.5 -29.371,0 0,33.75 z M 557.191,614.98 c 0,-5.742 0.387,-11.019 1.25,-15.781 0.821,-4.808 2.028,-9.34 3.59,-13.597 4.879,-13.043 12.578,-22.813 23.129,-29.372 10.621,-6.558 22.649,-9.839 36.09,-9.839 10.512,0 20.781,1.437 30.781,4.371 10,2.886 20.469,7.5 31.41,13.75 l 14.528,-24.84 c -13.239,-9.07 -26.559,-15.863 -40,-20.32 -13.438,-4.372 -27.348,-6.563 -41.719,-6.563 -13.75,0 -26.48,2.27 -38.129,6.723 -11.562,4.566 -21.562,11.328 -30,20.308 -8.43,9.071 -15.07,20.239 -19.84,33.602 -4.691,13.43 -7.031,29.098 -7.031,47.027 0,14.371 2.031,27.973 6.09,40.781 4.07,12.891 10.039,24.098 17.969,33.59 8.011,9.571 17.972,17.192 29.851,22.821 11.871,5.621 25.66,8.429 41.399,8.429 15.203,0 27.89,-2.34 38.132,-7.031 10.309,-4.609 18.629,-10.699 25,-18.277 6.438,-7.621 11.329,-16.332 14.688,-26.09 3.32,-9.813 5.66,-19.774 7.031,-29.852 0.621,-5 1.012,-10.082 1.25,-15.148 0.192,-5 0.309,-9.934 0.309,-14.692 l -145.778,0 z m 56.868,80.622 c -8.438,0 -15.86,-1.211 -22.18,-3.59 -6.367,-2.422 -11.801,-5.903 -16.258,-10.473 -4.371,-4.488 -7.922,-10 -10.621,-16.559 -2.621,-6.492 -4.531,-13.71 -5.781,-21.718 l 104.84,0 c -0.539,7.5 -1.719,14.41 -3.59,20.777 -1.879,6.449 -4.809,12.031 -8.75,16.723 -3.867,4.687 -8.867,8.316 -15,10.937 -6.168,2.582 -13.707,3.903 -22.66,3.903 z m 132.421,126.718 65.629,0 0,-118.281 c 8.629,6.563 18.012,11.762 28.121,15.633 10.2,3.937 20.711,5.93 31.571,5.93 13.199,0 25.347,-2.5 36.398,-7.5 11.141,-4.922 20.672,-11.832 28.602,-20.782 8,-8.98 14.219,-19.761 18.59,-32.34 4.449,-12.5 6.718,-26.41 6.718,-41.718 0,-16.25 -2.5,-31.024 -7.5,-44.223 -4.918,-13.238 -11.718,-24.609 -20.468,-34.059 -8.75,-9.492 -19.219,-16.839 -31.411,-22.031 -12.109,-5.078 -25.39,-7.66 -39.839,-7.66 -10,0 -19.45,1.492 -28.282,4.383 -8.75,2.887 -16.25,6.719 -22.5,11.398 l 0,-12.648 -36.25,0 0,270.308 -29.379,0 0,33.59 z M 862.109,693.57 c -9.488,0 -18.589,-1.992 -27.339,-5.929 -8.68,-3.871 -16.219,-9.071 -22.661,-15.629 l 0,-108.91 c 4.141,-4.293 10.231,-8.082 18.282,-11.403 8.129,-3.359 18.32,-5 30.629,-5 8.32,0 16.281,1.563 23.902,4.692 7.699,3.121 14.457,7.847 20.308,14.211 5.942,6.328 10.629,14.218 14.071,23.597 3.508,9.371 5.308,20.313 5.308,32.813 0,11.449 -1.679,21.597 -5,30.468 -3.238,8.829 -7.73,16.29 -13.437,22.34 -5.621,6.141 -12.262,10.782 -19.844,13.91 -7.5,3.2 -15.59,4.84 -24.219,4.84 z m 611.641,120.942 96.09,0 0,-33.75 -25.78,0 -84.68,-262.34 -59.69,0 -80.31,257.969 -74.07,-257.969 -59.06,0 -86.41,262.34 -26.09,0 0,33.75 96.09,0 0,-33.75 -25.78,0 71.56,-227.5 75.63,261.25 58.44,0 80.47,-261.25 72.96,227.5 -29.37,0 0,33.75 z m 120.12,-194.84 c 0.08,15.93 2.65,30.469 7.65,43.59 5,13.199 11.96,24.527 20.94,33.91 9.06,9.449 19.73,16.75 32.03,21.867 12.39,5.082 26.02,7.66 40.94,7.66 14.88,0 28.52,-2.578 40.94,-7.66 12.5,-5.117 23.16,-12.34 32.03,-21.719 8.83,-9.289 15.7,-20.468 20.62,-33.59 5,-13.128 7.5,-27.742 7.5,-43.75 0,-15.742 -2.5,-30.242 -7.5,-43.441 -4.92,-13.238 -11.79,-24.609 -20.62,-34.059 -8.87,-9.492 -19.53,-16.878 -32.03,-22.191 -12.42,-5.309 -26.06,-7.969 -40.94,-7.969 -15.31,0 -29.18,2.621 -41.56,7.821 -12.31,5.187 -22.89,12.531 -31.72,22.031 -8.87,9.449 -15.78,20.777 -20.78,33.898 -4.92,13.129 -7.42,27.66 -7.5,43.602 z m 38.43,0 c 0,-11.684 1.65,-22.192 5,-31.57 3.32,-9.372 7.86,-17.34 13.6,-23.903 5.82,-6.558 12.54,-11.679 20.15,-15.308 7.58,-3.563 15.71,-5.321 24.38,-5.321 8.95,0 17.27,1.758 25,5.321 7.81,3.507 14.57,8.589 20.31,15.148 5.71,6.563 10.2,14.531 13.44,23.91 3.2,9.371 4.84,19.922 4.84,31.723 0,12.18 -1.64,23 -4.84,32.5 -3.24,9.566 -7.73,17.539 -13.44,23.898 -5.62,6.328 -12.34,11.141 -20.15,14.379 -7.82,3.321 -16.21,5 -25.16,5 -8.67,0 -16.8,-1.679 -24.38,-5 -7.61,-3.238 -14.33,-8.051 -20.15,-14.379 -5.74,-6.359 -10.28,-14.332 -13.6,-23.898 -3.35,-9.5 -5,-20.32 -5,-32.5 z m 351.29,58.277 -37.03,0 0,12.5 c -4.29,0 -8.71,-0.859 -13.28,-2.5 -4.49,-1.558 -8.71,-4.027 -12.66,-7.347 -3.86,-3.364 -7.26,-7.571 -10.15,-12.653 -2.93,-5.121 -5,-11.211 -6.25,-18.277 l 0,-97.66 34.37,0 0,-33.59 -100.47,0 0,33.59 27.97,0 0.16,135.16 -28.13,0 0,33.59 64.69,0 0,-27.973 c 2.27,4.141 4.89,8.012 7.81,11.563 3.01,3.636 6.29,6.757 9.85,9.378 3.51,2.692 7.5,4.758 11.87,6.25 4.38,1.559 9.11,2.34 14.22,2.34 6.76,0 13.13,0 19.06,0 6.02,0 12.04,-0.109 17.97,-0.308 l 0,-44.063 z m 160.08,-125.937 11.41,0 -40.16,50 -39.22,-50 9.85,0 0,-33.59 -67.19,0 0,33.59 16.41,0 61.56,71.718 -57.81,63.442 -20.47,0 0,33.59 67.18,0 0,-33.59 -7.65,0 37.34,-47.973 37.66,47.973 -9.69,0 0,33.59 67.19,0 0,-33.59 -17.5,0 -57.19,-65.942 60.63,-69.218 14.84,0 0,-33.59 -67.19,0 0,33.59 z m 196.33,262.5 110.16,0 c 13.51,0 26.4,-1.801 38.59,-5.313 12.27,-3.437 23.67,-8.398 34.22,-14.847 10.51,-6.364 20.04,-14.024 28.59,-22.961 8.64,-8.871 15.98,-18.75 22.03,-29.692 6.14,-10.937 10.82,-22.738 14.07,-35.308 3.2,-12.5 4.84,-25.551 4.84,-39.071 0,-13.859 -1.64,-27.109 -4.84,-39.679 -3.25,-12.621 -7.93,-24.5 -14.07,-35.629 -6.05,-11.051 -13.39,-21.09 -22.03,-30.16 -8.55,-9.063 -18.08,-16.832 -28.59,-23.282 -10.55,-6.359 -21.95,-11.332 -34.22,-14.84 -12.19,-3.558 -25.08,-5.308 -38.59,-5.308 l -110.16,0 0,33.59 28.12,0 0,228.75 -28.12,0 0,33.75 z m 66.41,-33.75 0,-228.75 46.09,0 c 13.63,0 26.45,2.968 38.44,8.91 12.07,6.008 22.58,14.219 31.56,24.527 9.06,10.391 16.17,22.582 21.41,36.563 5.19,14.058 7.81,29.136 7.81,45.308 0,15.821 -2.62,30.629 -7.81,44.379 -5.24,13.832 -12.35,25.86 -21.41,36.09 -8.98,10.199 -19.49,18.199 -31.56,24.063 -11.99,5.937 -24.81,8.91 -38.44,8.91 l -46.09,0 z M 2663.55,614.98 c 0,-5.742 0.4,-11.019 1.25,-15.781 0.82,-4.808 2.04,-9.34 3.6,-13.597 4.88,-13.043 12.58,-22.813 23.12,-29.372 10.63,-6.558 22.66,-9.839 36.1,-9.839 10.5,0 20.78,1.437 30.78,4.371 10,2.886 20.47,7.5 31.4,13.75 l 14.54,-24.84 c -13.25,-9.07 -26.57,-15.863 -40,-20.32 -13.44,-4.372 -27.35,-6.563 -41.72,-6.563 -13.75,0 -26.49,2.27 -38.13,6.723 -11.56,4.566 -21.56,11.328 -30,20.308 -8.44,9.071 -15.08,20.239 -19.84,33.602 -4.69,13.43 -7.03,29.098 -7.03,47.027 0,14.371 2.03,27.973 6.09,40.781 4.06,12.891 10.04,24.098 17.97,33.59 8.01,9.571 17.97,17.192 29.84,22.821 11.88,5.621 25.67,8.429 41.41,8.429 15.19,0 27.89,-2.34 38.12,-7.031 10.32,-4.609 18.64,-10.699 25,-18.277 6.45,-7.621 11.33,-16.332 14.69,-26.09 3.32,-9.813 5.67,-19.774 7.03,-29.852 0.63,-5 1.02,-10.082 1.25,-15.148 0.2,-5 0.32,-9.934 0.32,-14.692 l -145.79,0 z m 56.88,80.622 c -8.44,0 -15.86,-1.211 -22.19,-3.59 -6.36,-2.422 -11.79,-5.903 -16.25,-10.473 -4.37,-4.488 -7.93,-10 -10.62,-16.559 -2.62,-6.492 -4.53,-13.71 -5.78,-21.718 l 104.84,0 c -0.55,7.5 -1.72,14.41 -3.59,20.777 -1.88,6.449 -4.81,12.031 -8.75,16.723 -3.87,4.687 -8.87,8.316 -15,10.937 -6.18,2.582 -13.71,3.903 -22.66,3.903 z m 257.73,-29.063 c 0,5.391 -1.32,10.039 -3.9,13.91 -2.5,3.832 -5.78,6.949 -9.85,9.371 -4.06,2.391 -8.59,4.102 -13.59,5.16 -4.92,1.129 -9.69,1.719 -14.37,1.719 -5.24,0 -10,-0.59 -14.38,-1.719 -4.3,-1.171 -7.97,-2.89 -11.09,-5.16 -3.13,-2.179 -5.59,-4.922 -7.35,-8.121 -1.79,-3.129 -2.65,-6.64 -2.65,-10.469 0,-6.8 2.03,-12.191 6.09,-16.25 4.14,-3.992 11.02,-7.621 20.63,-10.941 l 38.9,-13.75 c 16.64,-5.551 28.79,-13.117 36.41,-22.809 7.69,-9.609 11.56,-21.089 11.56,-34.531 0,-8.988 -1.8,-17.187 -5.31,-24.687 -3.56,-7.5 -8.67,-13.91 -15.31,-19.223 -6.57,-5.23 -14.5,-9.301 -23.75,-12.187 -9.18,-3 -19.46,-4.532 -30.79,-4.532 -15.74,0 -28.55,2.578 -38.43,7.66 -9.93,5.079 -17.5,11.801 -22.82,20.161 l -20.31,0 0,33.589 40.31,0 c 0,-5.628 1.18,-10.429 3.6,-14.378 2.5,-3.981 5.7,-7.18 9.69,-9.68 3.94,-2.5 8.43,-4.344 13.43,-5.473 5,-1.168 10.08,-1.719 15.32,-1.719 5.07,0 10,0.622 14.68,1.872 4.69,1.25 8.79,3.046 12.35,5.468 3.63,2.391 6.48,5.239 8.59,8.602 2.07,3.43 3.13,7.258 3.13,11.558 0,6.559 -2.15,12.071 -6.41,16.559 -4.3,4.57 -11.49,8.672 -21.56,12.352 l -38.75,14.531 c -15.75,5.5 -27.43,12.566 -35,21.25 -7.62,8.75 -11.41,19.609 -11.41,32.648 0,8.52 1.56,16.45 4.69,23.75 3.2,7.27 7.85,13.52 13.9,18.75 6.02,5.321 13.44,9.461 22.19,12.5 8.75,3.008 18.67,4.532 29.85,4.532 14.45,0 26.6,-2.032 36.4,-6.09 9.77,-4.063 18.6,-10.942 26.41,-20.621 l 18.9,0 0,-33.602 -40,0 z m 77.35,54.223 66.09,0 0,-168.75 30.47,0 0,-33.59 -96.09,0 0,33.59 28.9,0 0,135.16 -29.37,0 0,33.59 z m 22.5,71.718 c 0,3.321 0.66,6.481 2.03,9.532 1.33,3.129 3.16,5.816 5.47,8.129 2.26,2.257 5,4.097 8.12,5.461 3.13,1.328 6.45,2.039 10,2.039 3.32,0 6.49,-0.711 9.53,-2.039 3.13,-1.364 5.82,-3.204 8.13,-5.461 2.26,-2.313 4.1,-5 5.47,-8.129 1.33,-3.051 2.03,-6.211 2.03,-9.532 0,-3.558 -0.7,-6.878 -2.03,-10 -1.37,-3.128 -3.21,-5.902 -5.47,-8.281 -2.31,-2.418 -5,-4.301 -8.13,-5.629 -3.04,-1.359 -6.21,-2.031 -9.53,-2.031 -3.55,0 -6.87,0.672 -10,2.031 -3.12,1.328 -5.86,3.211 -8.12,5.629 -2.31,2.379 -4.14,5.153 -5.47,8.281 -1.37,3.122 -2.03,6.442 -2.03,10 z m 256.68,-256.25 c -6.68,-7.109 -14.46,-12.621 -23.28,-16.558 -8.75,-3.832 -18.71,-5.781 -29.85,-5.781 -13.75,0 -26.52,2.418 -38.28,7.179 -11.8,4.77 -21.99,11.758 -30.62,20.942 -8.68,9.136 -15.43,20.386 -20.32,33.75 -4.92,13.316 -7.34,28.59 -7.34,45.777 0,15.633 2.34,29.852 7.03,42.66 4.69,12.813 11.29,23.75 19.85,32.813 8.63,9.058 18.98,16.09 31.09,21.09 12.19,5 25.66,7.5 40.47,7.5 10.19,0 19.37,-1.172 27.5,-3.43 8.12,-2.192 16.01,-6.102 23.75,-11.723 l 0,10.313 36.25,0 0,-194.371 c 0,-31.961 -7.62,-56.141 -22.82,-72.5 -15.11,-16.45 -38.71,-24.692 -70.78,-24.692 -6.99,0 -14.33,0.539 -22.03,1.563 -7.73,1.058 -15.31,2.726 -22.81,5 -7.42,2.187 -14.69,5.078 -21.88,8.59 -7.1,3.558 -13.59,7.886 -19.53,12.968 l 19.53,29.379 c 3.83,-3.32 8.29,-6.41 13.29,-9.219 5.07,-2.89 10.5,-5.351 16.25,-7.339 5.7,-2.071 11.6,-3.68 17.65,-4.852 6.14,-1.129 12.27,-1.719 18.44,-1.719 10,0 18.63,1.059 25.94,3.129 7.38,2.11 13.47,5.781 18.28,11.09 4.76,5.242 8.32,12.313 10.62,21.25 2.39,8.992 3.6,20.352 3.6,34.223 l 0,2.968 z m -48.44,9.372 c 5.94,0 11.33,0.546 16.25,1.718 5,1.141 9.53,2.66 13.59,4.532 4.07,1.957 7.58,4.136 10.63,6.57 3.01,2.5 5.66,5.066 7.97,7.808 l 0,110.782 c -6.68,5.816 -14.34,10.039 -22.97,12.66 -8.67,2.566 -17.58,3.898 -26.72,3.898 -8.55,0 -16.64,-1.64 -24.22,-4.84 -7.5,-3.128 -14.14,-7.769 -19.84,-13.91 -5.63,-6.05 -10.12,-13.511 -13.44,-22.34 -3.24,-8.871 -4.84,-19.019 -4.84,-30.468 0,-12.5 1.56,-23.551 4.68,-33.121 3.13,-9.5 7.5,-17.469 13.13,-23.911 5.62,-6.492 12.34,-11.332 20.15,-14.531 7.82,-3.238 16.33,-4.847 25.63,-4.847 z m 270.43,6.41 28.44,0 0,92.34 c 0,15.507 -3.99,27.269 -11.88,35.32 -7.81,8 -19.06,12.027 -33.75,12.027 -8.55,0 -17.15,-2.027 -25.78,-6.097 -8.55,-4.063 -16.64,-9.063 -24.22,-15 l 0,-118.59 28.44,0 0,-33.59 -94.53,0 0,33.59 28.12,0 0,135.16 -28.12,0 0,33.59 64.53,0 0,-23.75 0.31,0 c 4.26,3.75 8.83,7.269 13.75,10.629 4.89,3.429 10,6.32 15.31,8.75 5.4,2.5 10.98,4.449 16.72,5.929 5.82,1.45 11.92,2.192 18.28,2.192 10.82,0 20.55,-1.524 29.22,-4.532 8.75,-3.05 16.18,-7.621 22.35,-13.75 6.13,-6.058 10.86,-13.871 14.22,-23.441 3.32,-9.609 5,-20.898 5,-33.898 l 0,-96.879 28.12,0 0,-33.59 -94.53,0"
         inkscape:connector-curvature="0"
         id="path24"
         style="fill:#bd1a8d;fill-opacity:1;fill-rule:nonzero;stroke:none" /><path
         d="m 289.262,330.922 62.5,0 0,-22.031 -16.723,0 -55,-170.469 -38.91,0 -52.18,167.648 -48.129,-167.648 -38.441,0 -56.0899,170.469 -17.0274,0 0,22.031 62.5,0 0,-22.031 -16.7226,0 46.5629,-147.821 49.058,169.852 37.969,0 52.351,-169.852 47.5,147.821 -19.218,0 0,22.031 z M 386.41,201.07 c 0,-3.672 0.231,-7.031 0.781,-10.148 0.618,-3.133 1.438,-6.063 2.5,-8.75 3.118,-8.563 8.118,-14.961 15,-19.223 6.868,-4.301 14.688,-6.41 23.43,-6.41 6.879,0 13.52,0.941 20,2.813 6.449,1.957 13.207,5 20.32,9.07 l 9.528,-16.102 c -8.668,-5.929 -17.348,-10.39 -26.09,-13.281 -8.68,-2.891 -17.66,-4.367 -27.039,-4.367 -8.981,0 -17.262,1.476 -24.84,4.367 -7.5,3.012 -14.02,7.422 -19.531,13.281 -5.43,5.821 -9.688,13.129 -12.809,21.879 -3.051,8.75 -4.539,18.903 -4.539,30.473 0,9.367 1.289,18.199 3.91,26.558 2.578,8.321 6.489,15.622 11.719,21.872 5.199,6.25 11.641,11.179 19.371,14.847 7.699,3.629 16.649,5.473 26.879,5.473 9.879,0 18.16,-1.531 24.84,-4.531 6.64,-3.051 12.07,-7.039 16.25,-12.039 4.14,-4.922 7.351,-10.543 9.531,-16.872 2.188,-6.371 3.68,-12.808 4.539,-19.378 0.391,-3.243 0.66,-6.524 0.781,-9.84 0.079,-3.364 0.149,-6.563 0.149,-9.692 l -94.68,0 z m 37.031,52.5 c -5.55,0 -10.39,-0.781 -14.531,-2.34 -4.07,-1.558 -7.582,-3.832 -10.469,-6.718 -2.82,-2.934 -5.121,-6.524 -6.882,-10.782 -1.68,-4.179 -2.969,-8.91 -3.899,-14.218 l 68.281,0 c -0.429,4.879 -1.25,9.41 -2.5,13.59 -1.171,4.136 -3.05,7.738 -5.632,10.789 -2.5,3 -5.739,5.347 -9.688,7.031 -3.98,1.75 -8.859,2.648 -14.68,2.648 z m 83.707,82.352 42.653,0 0,-76.883 c 5.629,4.262 11.719,7.66 18.289,10.16 6.64,2.582 13.469,3.903 20.461,3.903 8.64,0 16.57,-1.641 23.75,-4.84 7.187,-3.242 13.359,-7.774 18.597,-13.59 5.192,-5.863 9.223,-12.891 12.032,-21.102 2.89,-8.121 4.371,-17.148 4.371,-27.031 0,-10.551 -1.641,-20.117 -4.84,-28.75 -3.121,-8.551 -7.582,-15.937 -13.281,-22.187 -5.739,-6.172 -12.578,-10.891 -20.469,-14.211 -7.813,-3.321 -16.41,-5 -25.781,-5 -6.559,0 -12.731,0.929 -18.442,2.808 -5.738,1.949 -10.617,4.449 -14.687,7.5 l 0,-8.277 -23.59,0 0,175.777 -19.063,0 0,21.723 z m 75.153,-83.602 c -6.172,0 -12.102,-1.332 -17.813,-3.898 -5.617,-2.5 -10.539,-5.902 -14.687,-10.16 l 0,-70.782 c 2.699,-2.808 6.648,-5.308 11.879,-7.5 5.308,-2.109 11.91,-3.128 19.84,-3.128 5.39,0 10.628,0.976 15.628,2.968 5,2.071 9.372,5.16 13.122,9.219 3.832,4.141 6.921,9.262 9.218,15.313 2.274,6.136 3.442,13.289 3.442,21.41 0,7.379 -1.09,13.949 -3.282,19.687 -2.109,5.821 -5,10.699 -8.75,14.692 -3.668,3.937 -7.929,6.949 -12.808,9.058 -4.93,2.071 -10.16,3.121 -15.789,3.121 z m 164.89,-17.648 c 0,3.508 -0.863,6.558 -2.5,9.058 -1.679,2.5 -3.832,4.532 -6.41,6.09 -2.621,1.571 -5.551,2.7 -8.75,3.442 -3.242,0.699 -6.371,1.09 -9.371,1.09 -3.359,0 -6.488,-0.43 -9.379,-1.25 -2.812,-0.743 -5.269,-1.832 -7.34,-3.282 -1.992,-1.359 -3.562,-3.082 -4.691,-5.148 -1.172,-2.113 -1.719,-4.461 -1.719,-7.031 0,-4.379 1.289,-7.903 3.91,-10.469 2.688,-2.5 7.219,-4.934 13.59,-7.192 l 25.16,-8.75 c 10.821,-3.671 18.75,-8.671 23.75,-15 5,-6.25 7.5,-13.71 7.5,-22.339 0,-5.86 -1.211,-11.219 -3.601,-16.102 -2.301,-4.918 -5.578,-9.059 -9.84,-12.5 -4.301,-3.437 -9.449,-6.09 -15.469,-7.969 -5.941,-1.871 -12.621,-2.808 -20,-2.808 -10.23,0 -18.551,1.636 -25,4.84 -6.48,3.32 -11.41,7.699 -14.84,13.128 l -13.132,0 0,21.872 26.25,0 c 0,-3.672 0.781,-6.793 2.351,-9.372 1.559,-2.621 3.59,-4.691 6.09,-6.25 2.578,-1.558 5.512,-2.769 8.75,-3.589 3.32,-0.75 6.719,-1.102 10.16,-1.102 3.199,0 6.32,0.352 9.371,1.102 3.129,0.82 5.821,2.031 8.129,3.589 2.262,1.559 4.102,3.442 5.461,5.622 1.328,2.269 2.039,4.847 2.039,7.66 0,4.136 -1.371,7.699 -4.07,10.629 -2.731,3 -7.418,5.699 -14.059,8.121 l -25.152,9.379 c -10.238,3.629 -17.82,8.281 -22.82,13.898 -4.918,5.633 -7.34,12.66 -7.34,21.102 0,5.621 1.011,10.781 3.121,15.461 2.07,4.769 5.039,8.91 8.91,12.347 3.949,3.442 8.75,6.09 14.371,7.973 5.707,1.949 12.231,2.969 19.539,2.969 9.371,0 17.219,-1.332 23.59,-3.911 6.328,-2.621 12.07,-7.109 17.191,-13.441 l 12.34,0 0,-21.867 -26.09,0 z m 48.43,35.308 42.82,0 0,-109.691 19.84,0 0,-21.867 -62.5,0 0,21.867 18.91,0 0,87.813 -19.07,0 0,21.878 z m 14.539,46.559 c 0,2.191 0.391,4.262 1.25,6.25 0.93,1.949 2.11,3.672 3.59,5.16 1.559,1.563 3.32,2.731 5.309,3.59 2.07,0.941 4.261,1.41 6.57,1.41 2.18,0 4.25,-0.469 6.242,-1.41 1.957,-0.859 3.68,-2.027 5.16,-3.59 1.449,-1.488 2.578,-3.211 3.438,-5.16 0.941,-1.988 1.402,-4.059 1.402,-6.25 0,-2.301 -0.461,-4.488 -1.402,-6.559 -0.86,-1.992 -1.989,-3.75 -3.438,-5.308 -1.48,-1.57 -3.203,-2.82 -5.16,-3.75 -1.992,-0.863 -4.062,-1.25 -6.242,-1.25 -2.309,0 -4.5,0.387 -6.57,1.25 -1.989,0.93 -3.75,2.18 -5.309,3.75 -1.48,1.558 -2.66,3.316 -3.59,5.308 -0.859,2.071 -1.25,4.258 -1.25,6.559 z m 107.418,-46.559 30.781,0 0,-19.218 -31.089,0 -0.321,-75.942 c 0,-5.109 0.551,-9.289 1.723,-12.5 1.25,-3.242 3.168,-5.468 5.777,-6.718 2.582,-1.25 5.551,-1.872 8.91,-1.872 3.52,0 6.641,0.309 9.371,0.942 2.7,0.699 5.668,1.789 8.911,3.277 l 5.468,-15.777 c -4.058,-2.192 -8.359,-3.832 -12.808,-5 -4.5,-1.25 -9.813,-1.883 -15.942,-1.883 -5.738,0 -10.738,0.742 -15,2.191 -4.3,1.329 -7.89,3.629 -10.781,6.872 -2.93,3.32 -5.117,7.738 -6.558,13.289 -1.489,5.5 -2.192,12.418 -2.192,20.781 l 0.473,72.34 -21.102,0 0,19.218 21.25,0 0,31.411 23.129,10.929 0,-42.34 z m 80.703,-68.91 c 0,-3.672 0.239,-7.031 0.778,-10.148 0.632,-3.133 1.451,-6.063 2.501,-8.75 3.13,-8.563 8.13,-14.961 15,-19.223 6.88,-4.301 14.69,-6.41 23.44,-6.41 6.88,0 13.52,0.941 20,2.813 6.45,1.957 13.2,5 20.31,9.07 l 9.53,-16.102 c -8.67,-5.929 -17.34,-10.39 -26.09,-13.281 -8.67,-2.891 -17.66,-4.367 -27.03,-4.367 -8.99,0 -17.27,1.476 -24.84,4.367 -7.5,3.012 -14.028,7.422 -19.54,13.281 -5.43,5.821 -9.68,13.129 -12.809,21.879 -3.051,8.75 -4.531,18.903 -4.531,30.473 0,9.367 1.289,18.199 3.91,26.558 2.57,8.321 6.481,15.622 11.711,21.872 5.199,6.25 11.649,11.179 19.379,14.847 7.7,3.629 16.64,5.473 26.88,5.473 9.88,0 18.16,-1.531 24.84,-4.531 6.64,-3.051 12.07,-7.039 16.25,-12.039 4.14,-4.922 7.34,-10.543 9.53,-16.872 2.19,-6.371 3.67,-12.808 4.53,-19.378 0.39,-3.243 0.67,-6.524 0.78,-9.84 0.08,-3.364 0.16,-6.563 0.16,-9.692 l -94.689,0 z m 37.029,52.5 c -5.54,0 -10.39,-0.781 -14.53,-2.34 -4.06,-1.558 -7.58,-3.832 -10.47,-6.718 -2.81,-2.934 -5.11,-6.524 -6.87,-10.782 -1.68,-4.179 -2.97,-8.91 -3.909,-14.218 l 68.279,0 c -0.43,4.879 -1.25,9.41 -2.5,13.59 -1.17,4.136 -3.04,7.738 -5.62,10.789 -2.5,3 -5.74,5.347 -9.69,7.031 -3.98,1.75 -8.87,2.648 -14.69,2.648 z m 165.12,-18.898 c 0,3.508 -0.86,6.558 -2.5,9.058 -1.68,2.5 -3.83,4.532 -6.41,6.09 -2.61,1.571 -5.54,2.7 -8.75,3.442 -3.24,0.699 -6.36,1.09 -9.37,1.09 -3.36,0 -6.49,-0.43 -9.38,-1.25 -2.81,-0.743 -5.27,-1.832 -7.34,-3.282 -1.99,-1.359 -3.56,-3.082 -4.69,-5.148 -1.17,-2.113 -1.72,-4.461 -1.72,-7.031 0,-4.379 1.29,-7.903 3.91,-10.469 2.7,-2.5 7.23,-4.934 13.59,-7.192 l 25.16,-8.75 c 10.82,-3.671 18.75,-8.671 23.75,-15 5,-6.25 7.5,-13.71 7.5,-22.339 0,-5.86 -1.21,-11.219 -3.59,-16.102 -2.31,-4.918 -5.59,-9.059 -9.85,-12.5 -4.29,-3.437 -9.45,-6.09 -15.47,-7.969 -5.93,-1.871 -12.61,-2.808 -20,-2.808 -10.23,0 -18.55,1.636 -25,4.84 -6.48,3.32 -11.4,7.699 -14.84,13.128 l -13.13,0 0,21.872 26.25,0 c 0,-3.672 0.79,-6.793 2.35,-9.372 1.56,-2.621 3.59,-4.691 6.09,-6.25 2.58,-1.558 5.51,-2.769 8.75,-3.589 3.32,-0.75 6.72,-1.102 10.16,-1.102 3.2,0 6.33,0.352 9.37,1.102 3.13,0.82 5.82,2.031 8.13,3.589 2.26,1.559 4.1,3.442 5.47,5.622 1.33,2.269 2.03,4.847 2.03,7.66 0,4.136 -1.37,7.699 -4.06,10.629 -2.74,3 -7.43,5.699 -14.07,8.121 l -25.15,9.379 c -10.24,3.629 -17.82,8.281 -22.82,13.898 -4.92,5.633 -7.34,12.66 -7.34,21.102 0,5.621 1.02,10.781 3.13,15.461 2.07,4.769 5.03,8.91 8.9,12.347 3.95,3.442 8.75,6.09 14.38,7.973 5.7,1.949 12.22,2.969 19.53,2.969 9.37,0 17.22,-1.332 23.59,-3.911 6.33,-2.621 12.07,-7.109 17.19,-13.441 l 12.34,0 0,-21.867 -26.09,0 z m 112.69,122.808 19.54,0 0,-253.281 -19.54,0 0,253.281 z m 356.06,-26.558 62.5,0 0,-22.031 -16.72,0 -55,-170.469 -38.91,0 -52.18,167.648 -48.13,-167.648 -38.44,0 -56.09,170.469 -17.03,0 0,22.031 62.5,0 0,-22.031 -16.72,0 46.56,-147.821 49.07,169.852 37.96,0 52.35,-169.852 47.5,147.821 -19.22,0 0,22.031 z m 97.11,-129.852 c 0,-3.672 0.23,-7.031 0.78,-10.148 0.63,-3.133 1.45,-6.063 2.5,-8.75 3.13,-8.563 8.13,-14.961 15,-19.223 6.88,-4.301 14.69,-6.41 23.44,-6.41 6.87,0 13.51,0.941 20,2.813 6.44,1.957 13.2,5 20.31,9.07 l 9.53,-16.102 c -8.67,-5.929 -17.34,-10.39 -26.09,-13.281 -8.67,-2.891 -17.66,-4.367 -27.03,-4.367 -8.99,0 -17.27,1.476 -24.85,4.367 -7.5,3.012 -14.02,7.422 -19.53,13.281 -5.43,5.821 -9.69,13.129 -12.81,21.879 -3.05,8.75 -4.53,18.903 -4.53,30.473 0,9.367 1.29,18.199 3.9,26.558 2.58,8.321 6.49,15.622 11.72,21.872 5.2,6.25 11.64,11.179 19.38,14.847 7.69,3.629 16.64,5.473 26.87,5.473 9.89,0 18.17,-1.531 24.85,-4.531 6.64,-3.051 12.07,-7.039 16.25,-12.039 4.14,-4.922 7.34,-10.543 9.53,-16.872 2.19,-6.371 3.67,-12.808 4.53,-19.378 0.39,-3.243 0.66,-6.524 0.78,-9.84 0.08,-3.364 0.16,-6.563 0.16,-9.692 l -94.69,0 z m 37.03,52.5 c -5.55,0 -10.39,-0.781 -14.53,-2.34 -4.06,-1.558 -7.58,-3.832 -10.47,-6.718 -2.81,-2.934 -5.12,-6.524 -6.87,-10.782 -1.68,-4.179 -2.97,-8.91 -3.91,-14.218 l 68.28,0 c -0.43,4.879 -1.25,9.41 -2.5,13.59 -1.17,4.136 -3.05,7.738 -5.62,10.789 -2.5,3 -5.75,5.347 -9.69,7.031 -3.99,1.75 -8.87,2.648 -14.69,2.648 z m 83.71,82.352 42.66,0 0,-76.883 c 5.62,4.262 11.72,7.66 18.28,10.16 6.64,2.582 13.48,3.903 20.47,3.903 8.63,0 16.56,-1.641 23.75,-4.84 7.19,-3.242 13.36,-7.774 18.59,-13.59 5.2,-5.863 9.22,-12.891 12.03,-21.102 2.89,-8.121 4.38,-17.148 4.38,-27.031 0,-10.551 -1.64,-20.117 -4.85,-28.75 -3.12,-8.551 -7.57,-15.937 -13.28,-22.187 -5.74,-6.172 -12.58,-10.891 -20.47,-14.211 -7.81,-3.321 -16.4,-5 -25.78,-5 -6.56,0 -12.73,0.929 -18.43,2.808 -5.75,1.949 -10.63,4.449 -14.69,7.5 l 0,-8.277 -23.6,0 0,175.777 -19.06,0 0,21.723 z m 75.16,-83.602 c -6.17,0 -12.11,-1.332 -17.81,-3.898 -5.63,-2.5 -10.55,-5.902 -14.69,-10.16 l 0,-70.782 c 2.69,-2.808 6.64,-5.308 11.87,-7.5 5.32,-2.109 11.92,-3.128 19.85,-3.128 5.39,0 10.62,0.976 15.62,2.968 5,2.071 9.38,5.16 13.13,9.219 3.82,4.141 6.91,9.262 9.22,15.313 2.26,6.136 3.43,13.289 3.43,21.41 0,7.379 -1.09,13.949 -3.28,19.687 -2.11,5.821 -5,10.699 -8.75,14.692 -3.67,3.937 -7.93,6.949 -12.81,9.058 -4.92,2.071 -10.16,3.121 -15.78,3.121 z m 264.92,-92.031 15.94,0 -15.16,43.602 -74.06,0 -14.85,-43.602 19.85,0 0,-21.867 -62.5,0 0,21.867 16.72,0 60,170.633 37.5,0 59.68,-170.633 19.38,0 0,-21.867 -62.5,0 0,21.867 z m -65.94,64.691 59.38,0 -30,86.09 -29.38,-86.09 z m 136.45,45 41.87,0 0,-10.941 c 5.63,4.262 11.72,7.66 18.28,10.16 6.57,2.582 13.36,3.903 20.47,3.903 8.64,0 16.56,-1.641 23.75,-4.84 7.19,-3.242 13.36,-7.774 18.6,-13.59 5.19,-5.863 9.21,-12.891 12.03,-21.102 2.89,-8.121 4.37,-17.148 4.37,-27.031 0,-10.551 -1.64,-20.148 -4.84,-28.898 -3.24,-8.75 -7.74,-16.25 -13.44,-22.5 -5.62,-6.18 -12.42,-11.02 -20.31,-14.539 -7.81,-3.43 -16.49,-5.153 -25.94,-5.153 -6.68,0 -12.62,0.742 -17.81,2.192 -5.24,1.32 -10.16,3.121 -14.85,5.308 l 0,-42.5 20.47,0 0,-21.8787 -62.34,0 0,21.8787 17.97,0 0,147.653 -18.28,0 0,21.878 z m 74.37,-17.66 c -6.05,0 -11.87,-1.25 -17.5,-3.75 -5.62,-2.422 -10.54,-5.781 -14.69,-10.148 l 0,-71.25 c 2.82,-2.82 6.76,-5.391 11.88,-7.66 5.2,-2.301 11.72,-3.442 19.53,-3.442 5.39,0 10.63,1.02 15.63,3.129 5,2.192 9.37,5.352 13.12,9.531 3.83,4.141 6.92,9.301 9.22,15.469 2.27,6.25 3.44,13.442 3.44,21.563 0,7.379 -1.1,13.949 -3.28,19.687 -2.11,5.821 -5,10.699 -8.75,14.692 -3.68,3.937 -7.93,6.949 -12.82,9.058 -4.92,2.071 -10.15,3.121 -15.78,3.121 z m 83.79,17.66 41.88,0 0,-10.941 c 5.62,4.262 11.72,7.66 18.28,10.16 6.56,2.582 13.36,3.903 20.47,3.903 8.63,0 16.56,-1.641 23.75,-4.84 7.18,-3.242 13.36,-7.774 18.59,-13.59 5.2,-5.863 9.22,-12.891 12.03,-21.102 2.89,-8.121 4.38,-17.148 4.38,-27.031 0,-10.551 -1.64,-20.148 -4.85,-28.898 -3.24,-8.75 -7.73,-16.25 -13.43,-22.5 -5.63,-6.18 -12.43,-11.02 -20.32,-14.539 -7.81,-3.43 -16.48,-5.153 -25.94,-5.153 -6.67,0 -12.61,0.742 -17.81,2.192 -5.23,1.32 -10.15,3.121 -14.84,5.308 l 0,-42.5 20.47,0 0,-21.8787 -62.35,0 0,21.8787 17.97,0 0,147.653 -18.28,0 0,21.878 z m 74.38,-17.66 c -6.06,0 -11.88,-1.25 -17.5,-3.75 -5.63,-2.422 -10.55,-5.781 -14.69,-10.148 l 0,-71.25 c 2.81,-2.82 6.76,-5.391 11.87,-7.66 5.2,-2.301 11.72,-3.442 19.54,-3.442 5.39,0 10.62,1.02 15.62,3.129 5,2.192 9.38,5.352 13.12,9.531 3.83,4.141 6.92,9.301 9.22,15.469 2.27,6.25 3.44,13.442 3.44,21.563 0,7.379 -1.09,13.949 -3.28,19.687 -2.11,5.821 -5,10.699 -8.75,14.692 -3.67,3.937 -7.93,6.949 -12.81,9.058 -4.92,2.071 -10.16,3.121 -15.78,3.121 z m 164.88,-17.648 c 0,3.508 -0.86,6.558 -2.5,9.058 -1.68,2.5 -3.83,4.532 -6.41,6.09 -2.61,1.571 -5.54,2.7 -8.75,3.442 -3.24,0.699 -6.36,1.09 -9.37,1.09 -3.36,0 -6.49,-0.43 -9.38,-1.25 -2.81,-0.743 -5.27,-1.832 -7.34,-3.282 -1.99,-1.359 -3.56,-3.082 -4.69,-5.148 -1.17,-2.113 -1.72,-4.461 -1.72,-7.031 0,-4.379 1.29,-7.903 3.91,-10.469 2.69,-2.5 7.23,-4.934 13.59,-7.192 l 25.16,-8.75 c 10.82,-3.671 18.75,-8.671 23.75,-15 5,-6.25 7.5,-13.71 7.5,-22.339 0,-5.86 -1.21,-11.219 -3.59,-16.102 -2.31,-4.918 -5.59,-9.059 -9.85,-12.5 -4.3,-3.437 -9.45,-6.09 -15.47,-7.969 -5.93,-1.871 -12.61,-2.808 -20,-2.808 -10.23,0 -18.55,1.636 -25,4.84 -6.48,3.32 -11.4,7.699 -14.84,13.128 l -13.13,0 0,21.872 26.25,0 c 0,-3.672 0.79,-6.793 2.35,-9.372 1.56,-2.621 3.59,-4.691 6.09,-6.25 2.58,-1.558 5.51,-2.769 8.75,-3.589 3.32,-0.75 6.72,-1.102 10.16,-1.102 3.2,0 6.33,0.352 9.37,1.102 3.13,0.82 5.82,2.031 8.13,3.589 2.26,1.559 4.1,3.442 5.47,5.622 1.32,2.269 2.03,4.847 2.03,7.66 0,4.136 -1.37,7.699 -4.06,10.629 -2.74,3 -7.43,5.699 -14.07,8.121 l -25.15,9.379 c -10.24,3.629 -17.82,8.281 -22.82,13.898 -4.92,5.633 -7.34,12.66 -7.34,21.102 0,5.621 1.02,10.781 3.13,15.461 2.07,4.769 5.03,8.91 8.9,12.347 3.95,3.442 8.75,6.09 14.38,7.973 5.7,1.949 12.22,2.969 19.53,2.969 9.37,0 17.22,-1.332 23.59,-3.911 6.33,-2.621 12.07,-7.109 17.19,-13.441 l 12.34,0 0,-21.867 -26.09,0 z m 112.66,122.808 19.53,0 0,-253.281 -19.53,0 0,253.281 z m 211.71,-78.91 c 0,7.5 -1.36,13.051 -4.06,16.719 -2.73,3.75 -5.74,6.602 -9.06,8.602 -3.24,1.949 -6.84,3.468 -10.78,4.531 -3.87,1.129 -7.74,1.719 -11.56,1.719 -6.49,0 -12.15,-0.789 -17.04,-2.352 -4.8,-1.48 -8.75,-3.508 -11.87,-6.09 -3.13,-2.5 -5.55,-5.469 -7.19,-8.91 -1.56,-3.359 -2.34,-6.828 -2.34,-10.469 0,-5.621 0.97,-10.148 2.97,-13.59 1.95,-3.441 4.45,-6.21 7.5,-8.281 3,-2.109 6.32,-3.711 10,-4.847 3.75,-1.172 7.34,-2.34 10.78,-3.59 l 25.62,-8.282 c 7.7,-2.5 14.46,-5.308 20.32,-8.441 5.93,-3.117 10.85,-6.828 14.84,-11.09 3.94,-4.301 6.95,-9.219 9.06,-14.847 2.07,-5.543 3.13,-11.993 3.13,-19.372 0,-7.929 -1.68,-15.269 -5,-22.031 -3.25,-6.801 -7.78,-12.66 -13.6,-17.66 -5.86,-5 -12.81,-8.98 -20.93,-11.867 -8.05,-2.82 -16.88,-4.223 -26.57,-4.223 -9.92,0 -18.4,1.172 -25.47,3.442 -6.99,2.179 -12.89,5.148 -17.65,8.898 -4.81,3.832 -8.67,8.172 -11.56,12.973 -2.82,4.769 -5,9.726 -6.57,14.84 l -9.68,0 0,21.878 32.03,0 c 0,-9.378 0.97,-16.058 2.97,-20 1.95,-3.871 4.72,-7.109 8.28,-9.691 3.51,-2.617 7.73,-4.609 12.65,-5.937 4.89,-1.25 10.32,-1.872 16.25,-1.872 5.82,0 11.02,0.661 15.63,2.032 4.57,1.328 8.47,3.316 11.72,5.937 3.32,2.582 5.82,5.699 7.5,9.371 1.75,3.641 2.65,7.821 2.65,12.5 0,5.2 -1.09,9.571 -3.28,13.129 -2.11,3.629 -4.84,6.723 -8.28,9.223 -3.36,2.5 -7.03,4.527 -11.09,6.09 -4.07,1.636 -7.93,3.129 -11.57,4.379 l -27.81,7.808 c -6.17,1.871 -11.72,4.223 -16.72,7.031 -5,2.891 -9.33,6.442 -12.97,10.622 -3.67,4.136 -6.48,8.988 -8.43,14.539 -1.88,5.5 -2.82,11.91 -2.82,19.211 0,7.386 1.41,14.257 4.22,20.628 2.89,6.442 7.19,12.071 12.82,16.872 5.62,4.886 12.42,8.679 20.46,11.41 8.13,2.808 17.39,4.218 27.82,4.218 6.87,0 13.16,-0.859 18.9,-2.5 5.82,-1.558 11.1,-3.832 15.78,-6.718 4.69,-2.934 8.79,-6.481 12.35,-10.621 3.63,-4.071 6.72,-8.563 9.22,-13.442 l 9.53,0 0,-21.879 -31.1,0 z m 46.64,-74.371 c 0.08,10.391 1.76,19.879 5,28.442 3.21,8.507 7.74,15.847 13.6,22.031 5.82,6.129 12.73,10.816 20.78,14.058 8.12,3.321 16.95,5 26.56,5 9.77,0 18.67,-1.679 26.72,-5 8.13,-3.242 15.04,-7.89 20.78,-13.91 5.82,-6.05 10.31,-13.398 13.44,-22.031 3.2,-8.551 4.84,-17.969 4.84,-28.277 0,-10.313 -1.64,-19.801 -4.84,-28.442 -3.13,-8.55 -7.62,-15.898 -13.44,-22.031 -5.74,-6.168 -12.65,-10.937 -20.78,-14.367 -8.05,-3.442 -16.95,-5.16 -26.72,-5.16 -9.92,0 -18.87,1.679 -26.87,5 -8.05,3.437 -14.96,8.199 -20.78,14.379 -5.75,6.129 -10.24,13.468 -13.44,22.031 -3.13,8.508 -4.77,17.969 -4.85,28.277 z m 25,0 c 0,-7.5 1.02,-14.34 3.13,-20.469 2.19,-6.058 5.16,-11.21 8.91,-15.468 3.82,-4.301 8.2,-7.621 13.12,-10 5,-2.301 10.24,-3.442 15.78,-3.442 5.82,0 11.25,1.141 16.25,3.442 5.08,2.269 9.53,5.547 13.28,9.84 3.75,4.257 6.64,9.418 8.75,15.468 2.07,6.141 3.13,13.008 3.13,20.629 0,7.891 -1.06,14.922 -3.13,21.09 -2.11,6.25 -5,11.449 -8.75,15.633 -3.67,4.137 -8.04,7.258 -13.12,9.367 -5.12,2.07 -10.59,3.133 -16.41,3.133 -5.54,0 -10.78,-1.063 -15.78,-3.133 -4.92,-2.109 -9.3,-5.23 -13.12,-9.367 -3.75,-4.184 -6.72,-9.383 -8.91,-15.633 -2.11,-6.168 -3.13,-13.199 -3.13,-21.09 z m 226.33,30.781 c -3.55,6.25 -8.08,10.821 -13.59,13.75 -5.43,3.008 -11.72,4.532 -18.91,4.532 -5.54,0 -10.7,-1.172 -15.47,-3.442 -4.8,-2.3 -9.02,-5.582 -12.65,-9.84 -3.56,-4.179 -6.37,-9.3 -8.44,-15.308 -2.11,-6.063 -3.12,-12.781 -3.12,-20.16 0,-7.422 1.01,-14.063 3.12,-20 2.07,-5.942 4.88,-11.024 8.44,-15.16 3.63,-4.18 7.85,-7.422 12.65,-9.68 4.77,-2.192 9.93,-3.281 15.47,-3.281 8.13,0 15.16,1.91 21.1,5.781 6.01,3.937 10.86,9.719 14.53,17.34 l 19.53,-9.532 c -2.62,-5.429 -5.78,-10.308 -9.53,-14.691 -3.67,-4.301 -7.81,-7.969 -12.5,-11.09 -4.69,-3.051 -9.85,-5.39 -15.47,-7.027 -5.63,-1.641 -11.64,-2.5 -17.97,-2.5 -9.06,0 -17.5,1.719 -25.31,5.148 -7.74,3.442 -14.38,8.211 -20,14.379 -5.63,6.25 -10,13.629 -13.13,22.192 -3.12,8.507 -4.68,17.89 -4.68,28.121 0,10.078 1.6,19.41 4.84,27.968 3.32,8.508 7.85,15.86 13.59,22.032 5.82,6.129 12.58,10.937 20.32,14.379 7.69,3.507 15.93,5.308 24.68,5.308 8.32,0 16.17,-1.488 23.6,-4.379 7.38,-2.929 13.82,-7.3 19.37,-13.121 l 13.44,0 0,-21.719 -23.91,0 z m 45.55,35 42.81,0 0,-109.691 19.85,0 0,-21.867 -62.5,0 0,21.867 18.9,0 0,87.813 -19.06,0 0,21.878 z m 14.53,46.559 c 0,2.191 0.39,4.262 1.25,6.25 0.94,1.949 2.11,3.672 3.59,5.16 1.57,1.563 3.32,2.731 5.32,3.59 2.07,0.941 4.26,1.41 6.56,1.41 2.19,0 4.26,-0.469 6.25,-1.41 1.95,-0.859 3.67,-2.027 5.16,-3.59 1.44,-1.488 2.57,-3.211 3.43,-5.16 0.94,-1.988 1.41,-4.059 1.41,-6.25 0,-2.301 -0.47,-4.488 -1.41,-6.559 -0.86,-1.992 -1.99,-3.75 -3.43,-5.308 -1.49,-1.57 -3.21,-2.82 -5.16,-3.75 -1.99,-0.863 -4.06,-1.25 -6.25,-1.25 -2.3,0 -4.49,0.387 -6.56,1.25 -2,0.93 -3.75,2.18 -5.32,3.75 -1.48,1.558 -2.65,3.316 -3.59,5.308 -0.86,2.071 -1.25,4.258 -1.25,6.559 z m 146.6,-165.937 c -5,-4.68 -10.54,-8.551 -16.56,-11.563 -6.05,-2.891 -12.93,-4.367 -20.62,-4.367 -6.49,0 -12.43,1.047 -17.82,3.117 -5.31,1.949 -9.96,4.731 -13.9,8.281 -3.87,3.52 -6.88,7.578 -9.07,12.192 -2.11,4.687 -3.12,9.687 -3.12,15 0,5.508 0.82,10.386 2.5,14.687 1.64,4.371 3.83,8.121 6.56,11.25 2.7,3.199 5.86,5.942 9.53,8.121 3.75,2.192 7.58,3.91 11.56,5.16 4.07,1.329 8.17,2.258 12.35,2.809 4.26,0.512 8.28,0.781 12.03,0.781 6.13,0 11.25,-0.23 15.31,-0.621 4.14,-0.308 7.97,-0.859 11.41,-1.558 l 0.16,10.929 c 0,4.571 -0.71,8.602 -2.04,12.032 -1.36,3.437 -3.28,6.25 -5.78,8.437 -2.42,2.27 -5.31,3.949 -8.75,5 -3.43,1.133 -7.3,1.723 -11.56,1.723 -3.98,0 -7.77,-0.274 -11.41,-0.782 -3.67,-0.55 -7.11,-1.25 -10.31,-2.191 -3.12,-0.859 -6.05,-1.828 -8.75,-2.969 -2.62,-1.172 -4.84,-2.422 -6.72,-3.75 l -7.65,16.41 c 3.12,2.071 6.48,3.942 10.15,5.622 3.75,1.757 7.66,3.289 11.72,4.539 4.14,1.25 8.36,2.179 12.66,2.808 4.26,0.699 8.47,1.09 12.65,1.09 7.58,0 14.42,-0.898 20.47,-2.648 6.14,-1.801 11.29,-4.61 15.47,-8.442 4.26,-3.871 7.54,-8.75 9.85,-14.687 2.26,-5.864 3.43,-12.813 3.43,-20.942 l -0.15,-65.781 14.68,0 0,-21.867 -38.28,0 0,12.18 z m -32.03,3.91 c 3.13,0 6.25,0.347 9.38,1.09 3.2,0.82 6.17,1.878 8.9,3.128 2.81,1.329 5.39,2.848 7.81,4.532 2.39,1.758 4.38,3.59 5.94,5.468 l 0.16,29.692 -27.5,0 c -4.49,0 -8.67,-0.551 -12.5,-1.57 -3.75,-0.93 -7.03,-2.422 -9.84,-4.372 -2.74,-1.992 -4.85,-4.449 -6.41,-7.339 -1.49,-2.821 -2.19,-6.102 -2.19,-9.852 0,-3.437 0.63,-6.48 1.88,-9.059 1.32,-2.5 3.16,-4.652 5.46,-6.41 2.27,-1.789 5.04,-3.121 8.29,-4.058 3.2,-0.864 6.75,-1.25 10.62,-1.25 z m 94.73,181.41 42.65,0 0,-175.633 19.85,0 0,-21.867 -62.5,0 0,21.867 19.06,0 0,153.91 -19.06,0"
         inkscape:connector-curvature="0"
         id="path26"
         style="fill:#2c60a4;fill-opacity:1;fill-rule:nonzero;stroke:none" /></g></g></svg>